<svg width="213" height="163" viewBox="0 0 213 163" fill="none" xmlns="http://www.w3.org/2000/svg">
<path d="M192.402 25.7045H187.618V20.9208C187.618 9.65936 178.457 0.497803 167.195 0.497803H20.5988C9.33735 0.497803 0.175781 9.65971 0.175781 20.9208V116.873C0.175781 128.134 9.3377 137.296 20.5988 137.296H25.3825V142.079C25.3825 153.341 34.5444 162.502 45.8055 162.502H192.401C203.663 162.502 212.825 153.341 212.825 142.079V46.1275C212.825 34.866 203.663 25.7045 192.402 25.7045ZM197.776 142.079C197.776 145.047 195.37 147.454 192.402 147.454H45.8055C42.8372 147.454 40.431 145.047 40.431 142.079V137.295V129.771V122.247V46.1275C40.431 43.1589 42.8372 40.753 45.8055 40.753H172.57H180.094H187.618H192.402C195.37 40.753 197.776 43.1592 197.776 46.1275V142.079H197.776ZM15.2243 116.872V20.9208C15.2243 17.9526 17.6306 15.5463 20.5988 15.5463H167.195C170.163 15.5463 172.57 17.9526 172.57 20.9208V25.7045H45.8055C34.5444 25.7045 25.3825 34.8664 25.3825 46.1275V122.247H20.5992C17.6306 122.247 15.2243 119.841 15.2243 116.872Z" fill="#00AC4E"/>
<path d="M192.401 162.678H45.805C34.4469 162.678 25.2063 153.437 25.2063 142.079V137.471H20.5987C9.2406 137.471 0 128.231 0 116.873V20.9209C0 9.56286 9.2406 0.322266 20.5987 0.322266H167.195C178.553 0.322266 187.794 9.56286 187.794 20.9209V25.5289H192.402C203.76 25.5289 213 34.7695 213 46.1276V142.079C213 153.437 203.76 162.678 192.401 162.678ZM20.5987 0.673188C9.43415 0.673188 0.351274 9.75641 0.351274 20.9209V116.873C0.351274 128.037 9.43415 137.12 20.5987 137.12H25.558V142.08C25.558 153.244 34.6408 162.327 45.8054 162.327H192.401C203.566 162.327 212.649 153.244 212.649 142.08V46.1276C212.649 34.9631 203.567 25.8802 192.402 25.8802H187.442V20.9209C187.442 9.75641 178.36 0.673539 167.195 0.673539H20.5987V0.673188ZM192.402 147.629H45.8054C42.7451 147.629 40.2552 145.139 40.2552 142.079V46.1276C40.2552 43.0673 42.7451 40.5775 45.8054 40.5775H192.402C195.462 40.5775 197.952 43.0673 197.952 46.1276V142.079C197.951 145.139 195.462 147.629 192.402 147.629ZM45.8054 40.9287C42.9386 40.9287 40.6065 43.2612 40.6065 46.1276V142.079C40.6065 144.946 42.9386 147.278 45.8054 147.278H192.402C195.268 147.278 197.601 144.946 197.601 142.079V46.1276C197.601 43.2608 195.268 40.9287 192.402 40.9287H45.8054ZM25.558 122.423H20.599C17.5387 122.423 15.0486 119.933 15.0486 116.873V20.9209C15.0486 17.8606 17.5384 15.3708 20.5987 15.3708H167.195C170.256 15.3708 172.745 17.8606 172.745 20.9209V25.8802H45.8054C34.6408 25.8802 25.558 34.9631 25.558 46.1276V122.423ZM20.5987 15.7217C17.7319 15.7217 15.3998 18.0538 15.3998 20.9206V116.873C15.3998 119.739 17.7323 122.071 20.599 122.071H25.207V46.1276C25.207 34.7695 34.4476 25.5289 45.8057 25.5289H172.394V20.9209C172.394 18.0542 170.062 15.7221 167.196 15.7221H20.5987V15.7217Z" fill="#00AC4E"/>
<path d="M176.352 125.169L171.4 120.218L147.425 96.2425C145.326 94.1433 141.923 94.1433 139.824 96.2425L126.201 109.866L100.751 84.4155C98.6521 82.3163 95.2489 82.3163 93.1504 84.4155L55.3186 122.247L52.396 125.169C51.1419 126.423 50.6379 128.143 50.882 129.771C51.0467 130.869 51.5508 131.925 52.396 132.77L55.4366 135.811C56.2379 136.612 57.2295 137.106 58.2658 137.296C58.9075 137.413 59.5662 137.413 60.2076 137.296C61.2442 137.106 62.2359 136.612 63.0371 135.811L69.0762 129.771L76.6005 122.247L93.1501 105.698C95.2489 103.598 98.6521 103.598 100.751 105.698L117.3 122.247L124.824 129.771L130.863 135.811C131.665 136.612 132.656 137.106 133.693 137.296C134.334 137.413 134.993 137.413 135.634 137.296C136.671 137.106 137.662 136.612 138.464 135.811L141.505 132.77C142.349 131.925 142.854 130.869 143.018 129.771C143.262 128.143 142.759 126.424 141.505 125.169L138.582 122.247L136.842 120.507L143.624 113.724L152.148 122.247L159.672 129.771L165.711 135.811C166.468 136.568 167.396 137.05 168.37 137.261C169.647 137.537 171.004 137.345 172.167 136.683C172.577 136.45 172.963 136.16 173.312 135.811L176.352 132.771C178.323 130.8 178.443 127.68 176.713 125.568C176.6 125.431 176.48 125.298 176.352 125.169Z" fill="#00AC4E"/>
<path d="M134.664 137.559C134.329 137.559 133.991 137.529 133.662 137.468C132.55 137.265 131.54 136.735 130.74 135.935L100.626 105.822C99.6446 104.839 98.3389 104.299 96.9503 104.299C95.5617 104.299 94.2561 104.839 93.2743 105.822L63.1613 135.935C62.3615 136.735 61.3509 137.265 60.2394 137.468C59.5801 137.589 58.8941 137.589 58.2344 137.468C57.1229 137.265 56.1127 136.735 55.3125 135.935L52.2718 132.895C51.4263 132.049 50.8857 130.978 50.7083 129.798C50.448 128.062 51.0326 126.285 52.2718 125.046L93.0263 84.2917C94.0745 83.2435 95.4683 82.666 96.9507 82.666C98.4331 82.666 99.8269 83.2435 100.875 84.2917L126.201 109.618L139.701 96.1187C140.749 95.0705 142.142 94.493 143.625 94.493C145.108 94.493 146.501 95.0705 147.55 96.1187L176.476 125.046C176.604 125.174 176.73 125.312 176.849 125.457C178.664 127.671 178.503 130.868 176.476 132.895L173.436 135.935C173.086 136.286 172.688 136.589 172.255 136.835C171.423 137.309 170.475 137.559 169.513 137.559C169.117 137.559 168.72 137.517 168.333 137.433C167.291 137.208 166.342 136.69 165.587 135.935L143.625 113.973L137.091 120.508L141.63 125.046C142.869 126.285 143.453 128.062 143.193 129.798C143.016 130.978 142.475 132.049 141.63 132.895L138.589 135.935C137.789 136.735 136.779 137.266 135.667 137.469C135.337 137.529 135 137.559 134.664 137.559ZM96.9507 103.948C98.4331 103.948 99.8269 104.525 100.875 105.573L130.988 135.686C131.738 136.436 132.684 136.933 133.725 137.123C134.343 137.236 134.986 137.236 135.604 137.123C136.645 136.933 137.591 136.436 138.341 135.686L141.381 132.646C142.173 131.854 142.679 130.851 142.845 129.745C143.089 128.119 142.542 126.455 141.381 125.294L136.594 120.507L143.625 113.476L165.835 135.686C166.543 136.394 167.432 136.879 168.407 137.089C169.65 137.358 170.982 137.155 172.081 136.53C172.487 136.299 172.86 136.015 173.188 135.686L176.228 132.646C178.126 130.748 178.276 127.753 176.578 125.679C176.466 125.544 176.348 125.414 176.228 125.294L147.301 96.3667C146.319 95.3846 145.014 94.844 143.625 94.844C142.237 94.844 140.931 95.3846 139.949 96.3667L126.201 110.114L100.627 84.5397C99.645 83.5575 98.3393 83.0169 96.9507 83.0169C95.5621 83.0169 94.2568 83.5575 93.2746 84.5397L52.5205 125.294C51.3596 126.455 50.8123 128.119 51.0564 129.745C51.2222 130.851 51.7288 131.854 52.5205 132.646L55.5612 135.686C56.3108 136.436 57.2571 136.933 58.2979 137.123C58.9162 137.236 59.559 137.236 60.1769 137.123C61.2177 136.933 62.1644 136.436 62.9137 135.686L93.0266 105.573C94.0744 104.525 95.4683 103.948 96.9507 103.948Z" fill="#00AC4E"/>
<path d="M172.569 50.1609C170.225 49.2398 167.674 48.7336 165.008 48.7336C153.574 48.7336 144.271 58.0361 144.271 69.47C144.271 80.9043 153.574 90.2063 165.008 90.2063C167.674 90.2063 170.225 89.7001 172.569 88.7791C175.445 87.6487 178.009 85.8937 180.093 83.6821C183.595 79.9678 185.744 74.9656 185.744 69.47C185.744 63.9747 183.595 58.9722 180.093 55.2578C178.009 53.0462 175.445 51.2909 172.569 50.1609ZM165.007 75.1578C161.866 75.1578 159.32 72.6111 159.32 69.47C159.32 66.3289 161.866 63.7825 165.007 63.7825C168.149 63.7825 170.695 66.3293 170.695 69.47C170.696 72.6111 168.149 75.1578 165.007 75.1578Z" fill="#00AC4E"/>
<path d="M165.008 90.3816C153.477 90.3816 144.096 81.0005 144.096 69.4696C144.096 57.9387 153.477 48.5576 165.008 48.5576C167.636 48.5576 170.202 49.042 172.633 49.9971C175.483 51.117 178.107 52.8944 180.221 55.137C183.896 59.0354 185.92 64.1253 185.92 69.4696C185.92 74.8139 183.896 79.9038 180.221 83.8022C178.108 86.0444 175.484 87.8215 172.633 88.9424C170.202 89.8972 167.637 90.3816 165.008 90.3816ZM165.008 48.9089C153.671 48.9089 144.447 58.1323 144.447 69.4696C144.447 80.8069 153.671 90.0303 165.008 90.0303C167.593 90.0303 170.115 89.5543 172.505 88.615C175.307 87.5134 177.887 85.7662 179.965 83.5612C183.579 79.7282 185.568 74.7239 185.568 69.4696C185.568 64.2153 183.579 59.2107 179.965 55.3779C177.887 53.173 175.307 51.4254 172.505 50.3242C170.115 49.3852 167.593 48.9089 165.008 48.9089ZM165.007 75.3334C161.774 75.3334 159.144 72.7031 159.144 69.4699C159.144 66.2368 161.774 63.6068 165.007 63.6068C168.241 63.6068 170.871 66.2372 170.871 69.4699C170.872 72.7031 168.241 75.3334 165.007 75.3334ZM165.007 63.9578C161.968 63.9578 159.496 66.4304 159.496 69.4696C159.496 72.5092 161.968 74.9818 165.007 74.9818C168.047 74.9818 170.52 72.5088 170.52 69.4696C170.52 66.4304 168.047 63.9578 165.007 63.9578Z" fill="#00AC4E"/>
</svg>
