<svg width="34" height="34" viewBox="0 0 34 34" fill="none" xmlns="http://www.w3.org/2000/svg">
<g id="Icon/Outline/plus">
<path id="Mask" fill-rule="evenodd" clip-rule="evenodd" d="M22.6152 21.2289L18.3845 16.9744L22.639 12.7436C23.0311 12.3537 23.0322 11.7208 22.643 11.3294C22.2537 10.938 21.6209 10.9355 21.2287 11.3254L16.9742 15.5562L12.7435 11.3017C12.3543 10.9103 11.7214 10.9078 11.3293 11.2977C10.9372 11.6877 10.9361 12.3205 11.3253 12.7119L15.5561 16.9664L11.3016 21.1972C10.9095 21.5871 10.9084 22.22 11.2976 22.6114C11.6869 23.0028 12.3197 23.0053 12.7118 22.6154L16.9663 18.3846L21.1971 22.6391C21.5863 23.0305 22.2192 23.033 22.6113 22.6431C23.0034 22.2531 23.0045 21.6203 22.6152 21.2289Z" fill="black"/>
<mask id="mask0_176_1221" style="mask-type:alpha" maskUnits="userSpaceOnUse" x="11" y="11" width="12" height="12">
<path id="Mask_2" fill-rule="evenodd" clip-rule="evenodd" d="M22.6152 21.2289L18.3845 16.9744L22.639 12.7436C23.0311 12.3537 23.0322 11.7208 22.643 11.3294C22.2537 10.938 21.6209 10.9355 21.2287 11.3254L16.9742 15.5562L12.7435 11.3017C12.3543 10.9103 11.7214 10.9078 11.3293 11.2977C10.9372 11.6877 10.9361 12.3205 11.3253 12.7119L15.5561 16.9664L11.3016 21.1972C10.9095 21.5871 10.9084 22.22 11.2976 22.6114C11.6869 23.0028 12.3197 23.0053 12.7118 22.6154L16.9663 18.3846L21.1971 22.6391C21.5863 23.0305 22.2192 23.033 22.6113 22.6431C23.0034 22.2531 23.0045 21.6203 22.6152 21.2289Z" fill="white"/>
</mask>
<g mask="url(#mask0_176_1221)">
<g id="&#240;&#159;&#142;&#168; Color">
<rect id="Base" x="17.0176" width="24" height="24" transform="rotate(45.1603 17.0176 0)" fill="#C6C6C6"/>
</g>
</g>
</g>
</svg>
