<svg width="17" height="19" viewBox="0 0 17 19" fill="none" xmlns="http://www.w3.org/2000/svg">
<path d="M16.0566 8.78884V6.54293C16.0566 6.19795 15.7769 5.91326 15.432 5.91326C15.2055 5.91326 15.0077 6.04321 14.8981 6.20981H4.10568L1.24492 0.717468C1.08564 0.411482 0.708405 0.295011 0.402454 0.454293C0.0964314 0.613539 -0.0225254 0.991923 0.136684 1.29798L2.93943 6.68502V8.78884C2.93943 11.3229 4.37513 13.5269 6.47347 14.6265L4.52302 17.5449C4.33134 17.8317 4.40846 18.2196 4.69524 18.4113C4.80187 18.4826 4.92249 18.5167 5.04173 18.5167C5.24332 18.5167 5.4412 18.4193 5.56163 18.2391L6.4295 16.9405L8.89419 17.701V17.8695C8.89419 18.2145 9.17387 18.4941 9.51881 18.4941C9.86379 18.4941 10.1434 18.2144 10.1434 17.8695V17.701L12.6081 16.9405L13.476 18.2391C13.5964 18.4193 13.7943 18.5167 13.9959 18.5167C14.1152 18.5167 14.2358 18.4826 14.3424 18.4113C14.6292 18.2196 14.7063 17.8317 14.5146 17.5449L12.5554 14.6135C14.6355 13.5095 16.0566 11.313 16.0566 8.78884ZM4.18875 7.45909H14.8074V8.00043H4.18875V7.45909ZM8.89426 16.3936L7.15391 15.8566L7.65612 15.1052C8.05454 15.2225 8.46856 15.3029 8.89426 15.3423V16.3936ZM10.1435 16.3936V15.34C10.5676 15.2987 10.9798 15.2165 11.3766 15.0977L11.8839 15.8567L10.1435 16.3936ZM9.50847 14.1217H9.50328C6.73098 14.1217 4.4481 11.998 4.20972 9.24967H14.7865C14.5488 11.998 12.2726 14.1217 9.50847 14.1217Z" fill="#333333"/>
</svg>
