<svg width="18" height="18" viewBox="0 0 18 18" fill="none" xmlns="http://www.w3.org/2000/svg">
<path d="M14.6247 3.0638C13.0139 1.45302 10.8723 0.565918 8.59429 0.565918C6.31631 0.565918 4.17472 1.45302 2.56395 3.0638C0.953111 4.67457 0.06604 6.81619 0.06604 9.0942C0.06604 11.361 0.945649 13.4951 2.54283 15.1034C2.65813 15.2195 2.84565 15.22 2.96161 15.1048C3.07761 14.9896 3.07828 14.8021 2.96305 14.686C1.4768 13.1894 0.65832 11.2035 0.65832 9.0942C0.65832 4.71828 4.2184 1.1582 8.59432 1.1582C12.9702 1.1582 16.5303 4.71828 16.5303 9.0942C16.5303 13.4701 12.9702 17.0302 8.59429 17.0302C6.77631 17.0302 5.06596 16.4322 3.6481 15.3007C3.52028 15.1987 3.33396 15.2197 3.23195 15.3474C3.12991 15.4753 3.15087 15.6616 3.27876 15.7637C4.80258 16.9797 6.64072 17.6225 8.59432 17.6225C10.8723 17.6225 13.014 16.7354 14.6247 15.1246C16.2355 13.5139 17.1226 11.3722 17.1226 9.09424C17.1226 6.81626 16.2355 4.67457 14.6247 3.0638Z" fill="#333333"/>
<path d="M13.7925 7.04492C13.6453 6.67194 13.4568 6.31359 13.2322 5.97976C13.1409 5.84404 12.9568 5.80802 12.8212 5.89937C12.6855 5.99072 12.6495 6.17471 12.7408 6.31039C12.9416 6.60875 13.11 6.92899 13.2415 7.26229C13.2875 7.37872 13.399 7.44981 13.5171 7.44981C13.5533 7.44981 13.5901 7.44315 13.6257 7.42909C13.7779 7.36903 13.8525 7.19706 13.7925 7.04492Z" fill="#333333"/>
<path d="M10.9261 13.8536C10.8624 13.703 10.6887 13.6326 10.538 13.6963C9.9225 13.9566 9.26852 14.0886 8.59422 14.0886C5.84046 14.0886 3.60009 11.8483 3.60009 9.09451C3.60009 8.62758 3.66442 8.16546 3.79128 7.72096C3.83619 7.56368 3.74504 7.39982 3.5878 7.35494C3.43036 7.3101 3.26663 7.40108 3.22175 7.55842C3.0798 8.05579 3.00781 8.57262 3.00781 9.09447C3.00781 12.1748 5.51385 14.6809 8.59422 14.6809C9.3482 14.6809 10.0799 14.5331 10.7688 14.2418C10.9194 14.178 10.9899 14.0043 10.9261 13.8536Z" fill="#333333"/>
<path d="M12.6691 3.40557C12.4988 3.11095 12.2267 2.98879 12.0369 2.92256C11.9842 2.90417 11.9274 2.90104 11.873 2.91356L11.8502 2.91883C11.5147 2.99585 11.1677 2.86509 10.9664 2.58559C10.9328 2.53882 10.8862 2.50284 10.8324 2.48215C10.648 2.41133 10.3663 2.33001 10.0511 2.44208C9.43499 2.66118 8.95374 3.13906 8.73074 3.7532C8.69943 3.83945 8.67441 3.92669 8.65422 4.01451C8.53439 3.86353 8.39817 3.72311 8.2464 3.59562C8.15069 3.51527 8.04449 3.45054 7.93069 3.40331C7.58912 3.26149 7.19399 3.3004 6.87365 3.50748L6.75775 3.58237C6.53602 3.72578 6.25172 3.72232 6.03348 3.57344L5.96462 3.52647C5.55667 3.24816 5.02315 3.25399 4.63718 3.54089C4.62069 3.55318 4.60427 3.56601 4.58788 3.5795C4.33703 3.78654 4.12475 4.03246 3.95695 4.31043C3.8724 4.45045 3.91744 4.63247 4.05743 4.71699C4.19751 4.80147 4.37947 4.7565 4.46398 4.61652C4.59717 4.39591 4.76567 4.2007 4.96482 4.03636C4.97328 4.02937 4.98184 4.0227 4.99047 4.01627C5.17393 3.87989 5.43127 3.87966 5.63082 4.01577L5.69968 4.06275C6.11533 4.34628 6.65691 4.35291 7.07926 4.07977L7.19516 4.00488C7.35183 3.90361 7.54188 3.88322 7.70345 3.95035C7.76229 3.9748 7.81532 4.00711 7.86543 4.04922C8.42003 4.51504 8.71382 5.19797 8.67161 5.92297C8.60512 7.06472 7.65762 8.00003 6.51446 8.05237C5.8874 8.08112 5.29312 7.85898 4.84096 7.42701C4.3885 6.99477 4.13928 6.41225 4.13928 5.78678C4.13928 5.63741 4.15384 5.4881 4.18262 5.34298C4.21437 5.18251 4.11009 5.02667 3.94962 4.99492C3.78955 4.96311 3.63338 5.06741 3.6016 5.22785C3.56539 5.41078 3.547 5.59886 3.547 5.78675C3.547 6.57558 3.86121 7.31018 4.4318 7.85522C4.96935 8.36875 5.66587 8.64711 6.40576 8.64708C6.45087 8.64708 6.49611 8.64605 6.54151 8.64395C7.2444 8.61177 7.90986 8.31928 8.41536 7.82034C8.89701 7.34496 9.19243 6.72193 9.25473 6.05682C9.49812 6.29542 9.79641 6.47511 10.1334 6.58031C10.3434 6.64591 10.5603 6.67842 10.7772 6.67842C11.089 6.67842 11.4006 6.61106 11.6909 6.47771C12.1831 6.25157 12.571 5.85561 12.7831 5.36274C13.059 4.72185 13.0175 4.00848 12.6691 3.40557ZM12.2392 5.12861C11.9225 5.86441 11.075 6.25367 10.3099 6.01495C9.89019 5.88393 9.55192 5.5956 9.3574 5.20307C9.16279 4.81027 9.13793 4.36713 9.28748 3.95531C9.44991 3.50794 9.80057 3.15978 10.2495 3.00011C10.2892 2.98602 10.3295 2.97883 10.3732 2.97883C10.4245 2.97883 10.4804 2.98872 10.5455 3.00894C10.8779 3.4112 11.4 3.60292 11.9152 3.50988C12.0363 3.56095 12.1085 3.61924 12.1563 3.70193C12.4102 4.14127 12.4403 4.66122 12.2392 5.12861Z" fill="#333333"/>
<path d="M15.0376 9.64647C15.0833 8.981 14.7499 8.33712 14.1627 7.99399C13.5753 7.65086 12.8507 7.67661 12.2935 8.04319C11.9912 7.87263 11.6408 7.82722 11.3045 7.9155C10.9614 8.00552 10.674 8.22372 10.4952 8.52987C10.1371 9.14277 10.3273 9.92734 10.9155 10.311C10.9118 10.3656 10.9086 10.4197 10.9056 10.473C10.8758 10.9935 10.845 11.5318 10.2851 12.49C10.2026 12.6312 10.2502 12.8126 10.3914 12.8951L11.7451 13.6859C11.7908 13.7127 11.8424 13.7264 11.8945 13.7264C11.9196 13.7264 11.9449 13.7232 11.9697 13.7167C12.0456 13.6967 12.1105 13.6474 12.1502 13.5796C12.5826 12.8395 12.9492 12.5112 13.2203 12.3079C13.3511 12.2098 13.3777 12.0242 13.2795 11.8933C13.1814 11.7625 12.9958 11.736 12.865 11.8341C12.4596 12.1381 12.1221 12.5128 11.7931 13.028L10.9408 12.5301C11.4306 11.606 11.4683 11.0069 11.4963 10.5181C11.596 10.529 11.6969 10.5294 11.797 10.5177C11.9452 10.7378 12.1412 10.922 12.3729 11.0574C12.6046 11.1928 12.8613 11.273 13.1258 11.294C13.2364 11.5581 13.4308 11.7824 13.6808 11.9285C13.8908 12.0512 14.121 12.1095 14.3482 12.1095C14.805 12.1095 15.2502 11.8739 15.4968 11.4519C15.8626 10.8258 15.6561 10.0204 15.0376 9.64647ZM14.9853 11.1532C14.7809 11.5033 14.3297 11.6217 13.9795 11.4172C13.7998 11.3122 13.6764 11.1422 13.632 10.9385C13.6023 10.8019 13.4813 10.7053 13.3428 10.7053C13.3377 10.7053 13.3325 10.7055 13.3274 10.7057C13.0979 10.7177 12.8708 10.6624 12.6715 10.5461C12.4724 10.4297 12.3129 10.2592 12.2104 10.0532C12.1459 9.92331 11.9966 9.85931 11.8581 9.90205C11.6587 9.96345 11.4501 9.93937 11.2704 9.83446C10.9204 9.62992 10.802 9.17875 11.0065 8.82863C11.1056 8.65909 11.2647 8.53823 11.4547 8.48836C11.6447 8.43846 11.8427 8.46561 12.0122 8.56468C12.0468 8.5849 12.0805 8.60856 12.1124 8.63504C12.2236 8.72759 12.3856 8.72612 12.4953 8.63144C12.8775 8.30121 13.4275 8.2505 13.8638 8.50542C14.3 8.7603 14.526 9.26427 14.426 9.75954C14.3973 9.90149 14.4756 10.0434 14.6109 10.0949C14.6497 10.1096 14.6868 10.1273 14.7213 10.1475C14.7213 10.1475 14.7213 10.1475 14.7213 10.1475C15.0714 10.352 15.1898 10.8032 14.9853 11.1532Z" fill="#333333"/>
<path d="M8.45835 11.9336C8.6219 11.9336 8.75447 11.801 8.75447 11.6374C8.75447 11.4739 8.6219 11.3413 8.45835 11.3413C8.29481 11.3413 8.16223 11.4739 8.16223 11.6374C8.16223 11.801 8.29481 11.9336 8.45835 11.9336Z" fill="#333333"/>
<path d="M7.84202 10.7487C8.00557 10.7487 8.13815 10.6162 8.13815 10.4526C8.13815 10.2891 8.00557 10.1565 7.84202 10.1565C7.67848 10.1565 7.5459 10.2891 7.5459 10.4526C7.5459 10.6162 7.67848 10.7487 7.84202 10.7487Z" fill="#333333"/>
<path d="M7.00218 11.8147C7.16572 11.8147 7.2983 11.6821 7.2983 11.5185C7.2983 11.355 7.16572 11.2224 7.00218 11.2224C6.83863 11.2224 6.70605 11.355 6.70605 11.5185C6.70605 11.6821 6.83863 11.8147 7.00218 11.8147Z" fill="#333333"/>
<path d="M6.15171 12.2295C6.31526 12.2295 6.44784 12.0969 6.44784 11.9333C6.44784 11.7698 6.31526 11.6372 6.15171 11.6372C5.98817 11.6372 5.85559 11.7698 5.85559 11.9333C5.85559 12.0969 5.98817 12.2295 6.15171 12.2295Z" fill="#333333"/>
<path d="M5.67503 11.1633C5.83858 11.1633 5.97115 11.0307 5.97115 10.8672C5.97115 10.7036 5.83858 10.571 5.67503 10.571C5.51149 10.571 5.37891 10.7036 5.37891 10.8672C5.37891 11.0307 5.51149 11.1633 5.67503 11.1633Z" fill="#333333"/>
<path d="M6.68187 10.6303C6.84541 10.6303 6.97799 10.4978 6.97799 10.3342C6.97799 10.1707 6.84541 10.0381 6.68187 10.0381C6.51832 10.0381 6.38574 10.1707 6.38574 10.3342C6.38574 10.4978 6.51832 10.6303 6.68187 10.6303Z" fill="#333333"/>
<path d="M7.00218 9.56417C7.16572 9.56417 7.2983 9.43159 7.2983 9.26805C7.2983 9.1045 7.16572 8.97192 7.00218 8.97192C6.83863 8.97192 6.70605 9.1045 6.70605 9.26805C6.70605 9.43159 6.83863 9.56417 7.00218 9.56417Z" fill="#333333"/>
<path d="M5.61583 10.0974C5.77937 10.0974 5.91195 9.9648 5.91195 9.80125C5.91195 9.63771 5.77937 9.50513 5.61583 9.50513C5.45228 9.50513 5.3197 9.63771 5.3197 9.80125C5.3197 9.9648 5.45228 10.0974 5.61583 10.0974Z" fill="#333333"/>
</svg>
