<svg width="13" height="17" viewBox="0 0 13 17" fill="none" xmlns="http://www.w3.org/2000/svg">
<path d="M12.0117 10.4292C11.9484 10.3492 11.852 10.3025 11.7499 10.3025H10.9016L11.0687 9.99634C11.3319 9.51425 11.3217 8.9445 11.0414 8.47217C10.7611 7.99983 10.2659 7.71785 9.71669 7.71785H9.52296C9.58019 7.36788 9.51449 7.0056 9.3257 6.68749C9.04543 6.21519 8.55018 5.93321 8.00098 5.93321H7.61058C7.85541 5.62825 8.00239 5.24148 8.00239 4.82094C8.00239 3.95411 7.37941 3.23041 6.55776 3.07302C6.58117 2.56408 6.74913 1.31482 7.81066 0.815248C7.97751 0.736717 8.0491 0.537852 7.97057 0.371001C7.89207 0.204184 7.69317 0.132527 7.52632 0.211058C6.10759 0.878689 5.90915 2.4481 5.88807 3.07279C5.06583 3.22969 4.44229 3.95362 4.44229 4.8209C4.44229 5.24151 4.58927 5.62825 4.8341 5.93317H4.41293C3.8637 5.93317 3.36849 6.21515 3.08821 6.68745C2.89943 7.00557 2.83373 7.36785 2.89095 7.71782H2.69722C2.14799 7.71782 1.65281 7.9998 1.3725 8.47213C1.09222 8.94447 1.08201 9.51425 1.34517 9.99631L1.51231 10.3025H0.664081C0.562013 10.3025 0.465609 10.3492 0.402234 10.4292C0.338924 10.5092 0.315682 10.6138 0.339153 10.7131L1.7501 16.6825C1.78568 16.8331 1.92019 16.9395 2.07499 16.9395H10.339C10.4938 16.9395 10.6283 16.8331 10.6638 16.6825L12.0748 10.7131C12.0983 10.6139 12.0751 10.5093 12.0117 10.4292ZM6.22236 3.70863C6.83568 3.70863 7.33463 4.20761 7.33463 4.8209C7.33463 5.43419 6.83565 5.93317 6.22236 5.93317C5.60903 5.93317 5.11009 5.43419 5.11009 4.8209C5.11009 4.20761 5.60903 3.70863 6.22236 3.70863ZM3.66245 7.02826C3.82124 6.76068 4.10178 6.60093 4.41296 6.60093H8.00101C8.25268 6.60093 8.48425 6.70552 8.64766 6.88707H6.93009C6.74572 6.88707 6.59622 7.03654 6.59622 7.22094C6.59622 7.40533 6.74572 7.5548 6.93009 7.5548H8.87075C8.86551 7.60966 8.8552 7.66423 8.83936 7.71782H3.57465C3.50673 7.48822 3.53635 7.24081 3.66245 7.02826ZM1.9468 8.81291C2.1056 8.5453 2.38611 8.38558 2.69729 8.38558H9.71669C10.0278 8.38558 10.3084 8.54533 10.4672 8.81291C10.626 9.08048 10.6318 9.40328 10.4827 9.67636L10.1409 10.3024H2.27307L2.06652 9.92403H4.19157C4.37594 9.92403 4.52544 9.77456 4.52544 9.59017C4.52544 9.40577 4.37594 9.2563 4.19157 9.2563H1.82382C1.82411 9.1034 1.86497 8.95082 1.9468 8.81291ZM2.33916 16.2718L1.08607 10.9702H3.9128L4.36877 16.2718H2.33916ZM7.37502 16.2718H5.03892L4.58295 10.9702H7.83099L7.37502 16.2718ZM10.0748 16.2718H8.04521L8.50117 10.9702H11.3279L10.0748 16.2718Z" fill="#333333"/>
</svg>
