<svg width="11" height="19" viewBox="0 0 11 19" fill="none" xmlns="http://www.w3.org/2000/svg">
<path d="M9.62072 4.48398H8.34374L8.97559 1.46221C9.02252 1.23781 8.87864 1.0179 8.6543 0.971031C8.42996 0.924105 8.21005 1.06798 8.16307 1.29232L7.49569 4.48398H0.877351C0.642 4.48398 0.453519 4.67971 0.462595 4.91506L0.976904 18.2358C0.985537 18.4586 1.16865 18.6348 1.39166 18.6348H9.10641C9.32942 18.6348 9.51253 18.4586 9.52116 18.2358L10.0355 4.91506C10.0445 4.67988 9.85618 4.48398 9.62072 4.48398ZM1.37998 7.16006L1.30871 5.31405H7.32215L6.93617 7.16006H1.37998ZM8.70709 17.8047H1.79098L1.41203 7.99013H9.08604L8.70709 17.8047ZM9.11808 7.16006H7.78417L8.17015 5.31405H9.18936L9.11808 7.16006Z" fill="#333333"/>
<path d="M2.63749 14.6303C2.86654 14.6215 3.04506 14.4286 3.0362 14.1996L2.87384 9.99397C2.86493 9.76487 2.67081 9.58674 2.44309 9.59526C2.21405 9.60412 2.03553 9.79697 2.04438 10.026L2.20674 14.2316C2.21549 14.4572 2.40397 14.6384 2.63749 14.6303Z" fill="#333333"/>
<path d="M2.66099 15.2398C2.43194 15.2486 2.25342 15.4415 2.26228 15.6705L2.27727 16.0579C2.28602 16.2835 2.47444 16.4647 2.70802 16.4566C2.93707 16.4477 3.11559 16.2549 3.10673 16.0258L3.09174 15.6384C3.08288 15.4094 2.88898 15.2316 2.66099 15.2398Z" fill="#333333"/>
</svg>
