<svg width="15" height="17" viewBox="0 0 15 17" fill="none" xmlns="http://www.w3.org/2000/svg">
<path d="M8.77817 0.445098C8.40457 0.387948 8.03339 0.426048 7.66117 0.469328C7.65158 0.470414 7.64497 0.475594 7.63587 0.477433C4.36914 -0.186225 1.53095 3.35172 0.525213 6.23612C-0.764931 9.93608 0.306711 14.3522 4.06942 15.8963C8.00785 17.5126 12.1424 14.9268 13.8406 11.1744C15.7688 6.91432 13.5284 1.17167 8.77817 0.445098ZM13.2869 10.8388C11.8565 14.2902 8.04201 16.6657 4.48338 15.3739C0.807525 14.0396 0.0318914 9.85688 1.16734 6.41961C1.6858 4.85007 2.63764 3.45458 3.86139 2.39496C5.09804 1.32415 6.57333 1.03231 8.11807 1.02094C12.7363 1.21278 14.9849 6.74145 13.2869 10.8388Z" fill="#333333"/>
<path d="M9.70108 2.45374C9.0463 2.23208 8.34552 2.17083 7.66125 2.18345C7.60509 2.18445 7.56215 2.20392 7.52517 2.22974C1.17419 1.71948 -0.866609 13.5728 5.84725 14.866C9.15459 15.5029 11.813 13.0766 12.7021 9.92426C13.5073 7.06944 12.6821 3.46289 9.70108 2.45374ZM7.05457 14.347C3.83803 14.4818 2.08107 11.6591 2.29643 8.59235C2.52009 5.40699 4.63808 3.20446 7.54531 2.68234C7.57818 2.69989 7.61581 2.71184 7.66125 2.71259C14.615 2.82789 13.2534 14.0872 7.05457 14.347Z" fill="#333333"/>
<path d="M4.10225 10.6135C4.04094 10.6121 4.01387 10.572 3.96843 10.5375C3.925 10.5044 3.88214 10.4916 3.82856 10.4905C3.77716 10.4894 3.76346 10.578 3.81615 10.5853C3.92669 10.601 3.96746 10.7289 4.08509 10.7456C4.17968 10.7589 4.19523 10.6156 4.10225 10.6135Z" fill="#333333"/>
<path d="M12.0487 7.50557C12.0004 7.39001 11.8636 7.24898 11.7856 7.16024C11.6572 7.01403 11.6878 6.75886 11.6369 6.57696C11.5978 6.4371 11.4942 6.33558 11.3844 6.24208C11.5846 6.02276 11.6355 5.72197 11.353 5.35651C11.2311 5.19876 10.849 4.97601 10.8081 4.78225C10.7687 4.59568 10.75 4.46091 10.6363 4.30968C10.4464 4.05727 9.8591 4.20975 9.6091 4.17382C9.54948 4.16522 9.50396 4.1978 9.47922 4.24125C9.38238 4.12219 9.2716 4.02585 9.15284 3.98825C9.15042 3.97372 9.14551 3.95901 9.13648 3.94472C8.84273 3.48168 8.47929 3.18038 7.98178 2.98094C7.92812 2.95947 7.84666 2.98295 7.80984 3.02807C7.62671 3.25241 7.61084 3.44633 7.54292 3.69189C7.33981 3.67853 7.07151 3.6517 6.92004 3.76442C6.77945 3.86903 6.83206 4.09829 6.75673 4.24551C6.74706 4.26448 6.63362 4.26715 6.50495 4.28294C6.50197 4.25211 6.48489 4.2232 6.45009 4.21426C5.94436 4.08409 5.26589 3.98516 4.95071 4.54146C4.78659 4.83113 4.81173 4.95379 4.47938 5.02121C4.31784 5.05405 4.22261 5.18088 4.15195 5.32351C3.92523 5.78096 3.17868 6.19546 3.28092 6.79027C3.29019 6.84416 3.30824 6.89012 3.32806 6.9344C3.25949 6.95947 3.19753 6.99222 3.15209 7.03884C2.99426 7.20077 3.01924 7.42394 3.08716 7.62513C2.86205 7.75856 2.64516 7.96009 2.57555 8.22261C2.49796 8.51505 2.929 8.56551 3.08071 8.66402C3.20326 8.74365 3.33249 8.56334 3.23282 8.45957C3.18553 8.41036 3.14871 8.38028 3.09392 8.34001C3.05235 8.31436 3.00925 8.29196 2.96445 8.273C2.95245 8.26347 2.94342 8.25721 2.93504 8.25169C3.04453 8.06971 3.17796 7.94773 3.35867 7.83802C3.41773 7.80218 3.44867 7.72623 3.42949 7.65746C3.38542 7.4993 3.2669 7.30036 3.46865 7.24196C3.51199 7.22942 3.5555 7.21923 3.59901 7.20921C3.83757 7.32777 4.16081 7.32852 4.41807 7.27864C4.44192 7.353 4.47003 7.42736 4.50677 7.50273C4.55592 7.60341 4.69377 7.61076 4.76661 7.5374C4.8417 7.46178 4.92662 7.40981 5.02048 7.36286C5.02153 7.36236 5.02273 7.36211 5.02386 7.36161C4.90365 7.57634 4.77934 7.78254 4.69635 8.00763C4.2073 7.76909 3.67079 7.88197 3.45189 8.54738C3.39332 8.7256 3.15516 8.87215 3.04929 9.03516C2.93754 9.20737 2.88863 9.41641 2.88863 9.6212C2.88863 9.9453 3.10101 10.1762 3.36189 10.3028C3.32153 10.3619 3.2868 10.4259 3.26457 10.4998C3.1869 10.7582 3.30864 11.0139 3.51554 11.1589C3.6488 11.2522 3.80542 11.281 3.96028 11.2676C3.90654 11.5235 3.80534 11.7985 3.8756 12.0444C3.94634 12.2915 4.22583 12.3113 4.45755 12.2945C4.41541 12.8398 4.5552 13.4521 5.09517 13.6722C5.52484 13.8475 5.95451 13.6557 6.24955 13.3243C6.26849 13.338 6.28476 13.3532 6.30692 13.3652C6.55475 13.5005 6.83722 13.4024 7.08408 13.2577C7.13895 13.423 7.30299 13.5528 7.63251 13.6023C8.33023 13.7072 8.48186 13.2061 8.36262 12.7053C8.52239 12.9395 8.77401 13.087 9.12859 13.0462C9.62763 12.9886 9.69233 12.544 9.95643 12.2189C10.0256 12.1337 10.128 12.1162 10.1907 12.0167C10.2488 11.9247 10.2205 11.7943 10.1807 11.6773C10.5689 11.6614 10.8171 11.3998 11.0316 11.0168C11.066 10.9555 11.0233 10.8526 10.946 10.862C10.8254 10.8765 10.77 10.9146 10.6912 11.0164C10.4784 11.2918 10.3648 11.4363 9.98793 11.3975C9.90777 11.3892 9.83364 11.491 9.86208 11.5687C9.95248 11.8154 9.95699 11.8447 9.77934 11.9806C9.6153 12.1061 9.54481 12.3631 9.40929 12.5112C9.15945 12.7845 8.86271 12.7509 8.61972 12.5104C8.388 12.2809 8.36254 11.8995 8.40686 11.5785C9.17201 11.5216 9.88247 10.8843 10.1805 10.1165C10.2504 10.1329 10.3341 10.1278 10.3985 10.131C10.5446 10.1386 10.5822 9.95717 10.5132 9.86467C10.5444 9.76023 10.4122 9.6532 10.314 9.74193C10.3055 9.74979 10.2951 9.75522 10.2855 9.76182C10.365 9.37815 10.3376 8.98019 10.1606 8.61757C10.1666 8.59751 10.1728 8.57746 10.172 8.55198C10.1592 8.11667 10.3688 7.89066 10.133 7.47031C10.1236 7.45351 10.108 7.44265 10.094 7.4302C10.2026 7.28432 10.3222 7.17679 10.4217 7.06424C10.3876 7.11153 10.3818 7.1762 10.4394 7.23193C10.4509 7.24288 10.4634 7.24981 10.4754 7.25884C10.497 7.33938 10.4698 7.45736 10.4579 7.52395C10.439 7.62989 10.4099 7.73433 10.4026 7.8422C10.3975 7.9189 10.467 7.97739 10.5352 7.97973C10.7632 7.98758 10.9915 7.98574 11.2196 7.98624C11.2924 7.98641 11.3623 7.92049 11.3586 7.84212C11.3531 7.72648 11.24 7.47423 11.3188 7.37723C11.3499 7.33905 11.3647 7.28432 11.3539 7.23569C11.3594 7.24355 11.3641 7.25173 11.3716 7.25875C11.8798 7.72598 11.8449 8.24568 11.2635 8.67071C11.1658 8.74214 11.1391 8.87616 11.2262 8.97091C11.4658 9.23126 11.308 9.481 11.1667 9.69682C11.0737 9.65003 10.9784 9.60641 10.8818 9.5582C10.8167 9.5257 10.7189 9.53355 10.6843 9.61201C10.5938 9.81713 10.5746 10.1204 10.4336 10.2919C10.3142 10.4373 10.5164 10.6492 10.6368 10.5026C10.7802 10.3283 10.8152 10.102 10.8854 9.89049C10.9378 9.91614 10.9885 9.94271 11.0385 9.9702C11.0431 10.1072 11.1971 10.2021 11.3043 10.1496C11.3138 10.1576 11.3235 10.1643 11.3329 10.1726C11.2999 10.341 11.2448 10.5143 11.0558 10.5108C10.8996 10.5079 10.7524 10.4881 10.6086 10.5686C10.4846 10.6381 10.5698 10.8552 10.7054 10.8066C10.824 10.764 10.9596 10.8198 11.0821 10.8212C11.2383 10.823 11.3829 10.7513 11.4739 10.619C11.5974 10.4394 11.7187 10.1267 11.5473 9.95558C11.5209 9.92934 11.4921 9.90912 11.4644 9.8864C11.664 9.4876 11.8509 9.30287 11.602 8.87458C12.0255 8.50887 12.2975 8.10146 12.0487 7.50557ZM9.54384 6.28052C9.56285 5.84655 9.66026 5.42202 9.70506 4.9913C9.86402 5.10627 10.01 5.24146 10.0861 5.42937C10.191 5.68897 10.1528 6.00739 10.1142 6.28545C9.93315 6.32104 9.76677 6.26916 9.5776 6.27759C9.56479 6.27818 9.55407 6.28152 9.54295 6.28453C9.54303 6.28303 9.54368 6.28202 9.54384 6.28052ZM6.83988 4.6144C6.90095 4.62075 6.95783 4.57513 6.98909 4.52566C7.08481 4.3741 7.14749 4.23331 7.1607 4.05192C7.16094 4.04833 7.16102 4.04682 7.16127 4.04357C7.31483 4.01148 7.51601 4.03855 7.66127 4.03755C7.74104 4.03697 7.79099 3.98433 7.81951 3.91264C7.86576 3.79583 7.90483 3.32961 8.15331 3.44617C8.43707 3.57926 8.67201 3.78297 8.87512 4.02193C8.83757 4.04357 8.79987 4.07064 8.762 4.10849C8.60554 4.2644 8.51417 4.45949 8.46793 4.67138C8.44746 4.62075 8.39936 4.58089 8.34578 4.58123C8.11141 4.58273 7.85609 4.53745 7.62582 4.5854C7.54389 4.60245 7.51504 4.69586 7.538 4.76822C7.5741 4.99139 7.48773 5.21823 7.53671 5.43564C7.6027 5.72857 7.98564 5.72657 8.2089 5.72715C8.25676 5.72723 8.31912 5.69841 8.33918 5.6497C8.43425 5.41834 8.40146 5.17646 8.43296 4.941C8.41564 5.26953 8.48082 5.61561 8.56928 5.9103C8.33789 6.01566 7.9829 6.20156 8.0024 6.46834C8.02085 6.7195 8.2068 6.86129 8.40202 6.97994C8.30316 7.00667 8.20398 7.02873 8.10529 7.00667C8.07113 6.99907 8.04236 7.00609 8.01819 7.01962C7.79929 6.79253 7.30621 6.35329 6.99078 6.62885C6.94405 6.66962 6.91134 6.71892 6.88443 6.77147C6.83666 6.74942 6.78735 6.72159 6.73909 6.71056C6.74279 6.67756 6.70356 6.65333 6.676 6.67815C6.65554 6.69653 6.64474 6.72243 6.62452 6.7388C6.61936 6.74298 6.61719 6.74967 6.61316 6.75493C6.71991 6.3101 6.82304 5.85214 6.80032 5.42878C6.79508 5.33069 6.67044 5.28867 6.6192 5.3779C6.56796 5.46713 6.52598 5.56431 6.48763 5.6644C6.47579 5.64544 6.45847 5.63073 6.42938 5.63282C6.10066 5.65646 5.69991 5.90946 5.65552 6.27584C5.6133 6.62392 5.89731 6.90524 6.18824 7.03951C6.17938 7.09399 6.17051 7.14871 6.16109 7.20152C5.68444 7.05288 5.3459 6.70864 5.52967 6.13815C5.70934 5.58035 6.30925 5.27154 6.84004 5.25809C6.95856 5.25508 6.99505 5.05455 6.86912 5.03542C6.69993 5.00968 6.53428 5.01219 6.37476 5.03517C6.44284 4.79002 6.38507 4.56736 6.83988 4.6144ZM8.15661 4.86297C8.14468 4.91477 8.13445 4.96691 8.13067 5.0233C8.12172 5.15615 8.133 5.28633 8.1015 5.41374C8.0194 5.41299 7.93376 5.4079 7.86326 5.37581C7.82531 5.35852 7.82894 5.35083 7.82668 5.29869C7.82024 5.15264 7.82829 5.01403 7.81653 4.87333C7.92852 4.877 8.04341 4.86923 8.15661 4.86297ZM6.43671 5.80201C6.33479 6.11742 6.27848 6.46684 6.22578 6.80364C6.08866 6.67004 5.9562 6.52692 5.94025 6.32062C5.9193 6.05025 6.25253 5.92325 6.43671 5.80201ZM4.56188 6.52215C4.4486 6.49608 4.32493 6.57696 4.32864 6.70639C4.33162 6.81049 4.34153 6.908 4.35571 7.0035C4.22938 7.00116 4.08169 6.99974 3.95431 6.96816C3.94521 6.90491 3.9009 6.84801 3.82847 6.85377C3.80341 6.85578 3.77626 6.8577 3.74782 6.85996C3.7193 6.83155 3.69424 6.79938 3.67837 6.75794C3.5783 6.4965 4.09201 6.12586 4.2446 6.00229C4.37335 5.89802 4.45062 5.62547 4.52845 5.47348C4.58138 5.37005 4.87481 5.35392 4.97246 5.32919C5.02934 5.31473 5.09122 5.25809 5.10113 5.19576C5.20611 4.53644 5.65931 4.37619 6.20016 4.36992C6.17245 4.38764 6.1486 4.40794 6.13305 4.43326C6.00406 4.6418 6.01719 4.89873 6.0039 5.13836C5.62853 5.29468 5.32132 5.59764 5.16188 6.03337C5.09154 6.22546 5.07535 6.40468 5.09815 6.56928C4.91936 6.56142 4.73269 6.56142 4.56188 6.52215ZM4.7318 7.14362C4.71021 7.05313 4.69925 6.96298 4.69667 6.86839C4.85459 6.84884 5.01975 6.84968 5.17598 6.83974C5.19974 6.89196 5.22826 6.94175 5.26033 6.98946C5.08936 6.96448 4.8935 7.04126 4.7318 7.14362ZM5.04433 8.02242C5.12063 7.77394 5.24414 7.55937 5.30279 7.30429C5.30505 7.29451 5.30416 7.28549 5.30408 7.2763C5.33437 7.26544 5.36378 7.25207 5.3915 7.23369C5.4085 7.22241 5.42171 7.20695 5.43098 7.18949C5.64714 7.39352 5.94154 7.53214 6.24754 7.58477C6.33189 7.59923 6.43712 7.56322 6.45508 7.46254C6.49069 7.26326 6.54089 7.05447 6.59205 6.84233C6.59575 6.87048 6.60566 6.89772 6.62436 6.91518C6.67882 6.9659 6.7444 7.00642 6.81538 7.03876C6.8 7.28674 6.87573 7.56973 6.93455 7.78555C6.6897 8.00346 6.3986 8.33224 6.46556 8.68374C6.52671 9.00525 6.77526 9.13401 7.04952 9.19091C6.91561 9.30136 6.82239 9.42352 6.7581 9.55152C6.43534 9.55035 6.15327 9.54258 5.82391 9.38717C5.70072 9.32893 5.59791 9.27747 5.56375 9.18088C5.56778 9.17018 5.57278 9.16066 5.57648 9.14946C5.5909 9.10627 5.58051 9.07193 5.55827 9.04828C5.55997 9.03942 5.56005 9.03157 5.56254 9.02213C5.60581 8.85519 5.64368 8.72451 5.65504 8.55164C5.66156 8.45213 5.56641 8.35513 5.4711 8.36081C5.34727 8.36825 5.21803 8.3685 5.12997 8.32764C5.1025 8.29915 5.07414 8.2725 5.04537 8.24651C5.01879 8.19529 5.01282 8.12503 5.04433 8.02242ZM6.09977 10.9C6.05087 10.9178 6.00108 10.9403 5.95137 10.9656C5.83293 10.9242 5.71297 10.8847 5.60009 10.8312C5.33687 10.7065 5.51026 10.3887 5.5967 10.1892C5.62998 10.1125 5.61717 10.0298 5.54458 9.98273C5.33598 9.8478 5.17638 9.73074 5.36354 9.50231C5.36676 9.49838 5.36958 9.49454 5.37281 9.49061C5.76687 9.72288 6.21072 9.94346 6.65828 9.90486C6.63862 10.1404 6.69896 10.3824 6.81571 10.607C6.74199 10.6152 6.65981 10.6008 6.59366 10.5954C6.4865 10.5868 6.39611 10.608 6.2925 10.6189C6.18671 10.63 6.09518 10.7031 6.09615 10.8226C6.09623 10.8496 6.09881 10.8739 6.09977 10.9ZM6.48965 10.9229C6.49883 10.9209 6.50794 10.9179 6.5172 10.9165C6.66512 10.8869 6.82473 10.9037 6.9592 10.8391C6.99747 10.8915 7.03872 10.942 7.08215 10.9907C6.86389 10.9874 6.73353 11.2535 6.53879 11.3336C6.51865 11.2682 6.50254 11.2016 6.49698 11.1321C6.49182 11.0669 6.48908 11.0021 6.48836 10.9367C6.48932 10.9306 6.48908 10.928 6.48965 10.9229ZM3.91266 10.9294C3.84619 10.928 3.77739 10.9057 3.71696 10.8685C3.66942 10.8391 3.64542 10.814 3.6127 10.7453C3.62302 10.7669 3.60175 10.6851 3.60304 10.7016C3.60126 10.6796 3.60279 10.6576 3.60465 10.6358C3.60094 10.6781 3.61383 10.6089 3.61633 10.6004C3.61867 10.5924 3.61842 10.5921 3.61915 10.5892C3.6206 10.5868 3.62173 10.5852 3.62624 10.5757C3.63784 10.551 3.65138 10.5268 3.66451 10.5029C3.69239 10.4522 3.72969 10.4107 3.76933 10.3695C3.85159 10.2842 3.94465 10.2112 4.04077 10.1432C4.0481 10.1621 4.06026 10.1786 4.08347 10.1838C4.18901 10.2077 4.28175 10.1986 4.38826 10.1929C4.48599 10.1877 4.55737 10.2278 4.62247 10.2882C4.52603 10.5272 4.39019 10.7517 4.16226 10.8741C4.07839 10.9191 4.00008 10.9311 3.91266 10.9294ZM6.04781 12.9395C5.8563 13.2064 5.62772 13.4303 5.26573 13.3298C4.81108 13.2034 4.75702 12.53 4.81173 12.1466C4.82574 12.0484 4.76951 11.9105 4.64986 11.9262C4.45642 11.9516 4.17217 12.0376 4.18305 11.7613C4.19038 11.5745 4.21471 11.3927 4.21729 11.2065C4.23292 11.2005 4.24895 11.1952 4.26418 11.1884C4.60901 11.0357 4.81624 10.6465 4.92082 10.2932C4.93419 10.2478 4.92138 10.1842 4.88504 10.1528C4.76177 10.0467 4.63633 9.96602 4.47261 9.96026C4.38076 9.957 4.28755 9.98215 4.19707 10.0089C4.2218 9.93636 4.16363 9.84328 4.07493 9.86776C3.89332 9.91773 3.70326 9.99276 3.54873 10.1094C3.31291 9.94221 3.14831 9.73525 3.21905 9.41524C3.28962 9.09599 3.5953 8.94217 3.71752 8.6631C3.82605 8.41554 3.97365 8.18176 4.25677 8.16396C4.38705 8.15577 4.50863 8.19964 4.6244 8.26163C4.61522 8.30976 4.60821 8.35889 4.60394 8.40952C4.59902 8.46843 4.641 8.54956 4.69458 8.57328C4.88867 8.65959 5.06415 8.69845 5.25743 8.72176C5.21827 8.90106 5.16308 9.069 5.1618 9.26109C5.1618 9.26226 5.16268 9.26326 5.16268 9.26451C5.0689 9.37464 4.98978 9.49938 4.95796 9.62914C4.90067 9.8625 5.10677 10.0398 5.28555 10.1658C5.17445 10.4117 5.06866 10.7246 5.24655 10.9467C5.35145 11.0777 5.49922 11.135 5.6556 11.1673C5.4848 11.3191 5.35814 11.5125 5.35927 11.7276C5.36153 12.1823 5.74447 12.3701 6.11113 12.484C6.06731 12.6321 6.03717 12.7919 6.04781 12.9395ZM7.83135 13.255C7.81129 13.2209 7.79526 13.184 7.79993 13.1532C7.80726 13.1062 7.81 13.0552 7.8096 13.0056C7.86793 12.9912 7.86584 12.8931 7.79784 12.8931C7.79615 12.8931 7.79558 12.8949 7.79381 12.8949C7.73588 12.7581 7.52761 12.7761 7.51319 12.9519C7.50481 13.0526 7.53132 13.153 7.57684 13.2437C7.45703 13.2059 7.4273 13.1146 7.44793 13C7.45937 12.9824 7.46324 12.9618 7.46162 12.9422C7.52938 12.7171 7.75216 12.4266 7.89428 12.2539C8.07161 12.5961 8.37092 13.1851 7.83135 13.255ZM8.18231 12.2566C8.13107 12.1702 8.07298 12.0907 8.00941 12.0233C7.94479 11.9547 7.85399 12.0025 7.83522 12.0764C7.52334 12.2483 7.18552 12.6146 7.09004 12.948C6.93922 12.9854 6.78646 13.0152 6.63249 13.0198C6.56594 13.0218 6.51994 13.0041 6.48401 12.9771C6.5263 12.8914 6.56119 12.803 6.58552 12.7131C6.62178 12.5789 6.51744 12.5013 6.41488 12.512C6.41971 12.4812 6.42479 12.4513 6.42922 12.4236C6.44219 12.3439 6.41012 12.2666 6.33012 12.2427C6.09349 12.1722 5.56875 11.9781 5.7149 11.627C5.792 11.4416 5.9645 11.3241 6.13418 11.2132C6.1627 11.3509 6.20886 11.4834 6.28331 11.6214C6.30958 11.6702 6.37306 11.7154 6.42938 11.7083C6.59422 11.6878 6.71854 11.6224 6.84882 11.5178C6.96315 11.4259 7.14974 11.3016 7.21162 11.1664C7.21718 11.1542 7.21718 11.1429 7.21944 11.1312C7.26665 11.1748 7.31507 11.2169 7.36567 11.2552C7.63267 11.4581 7.91394 11.5585 8.1923 11.5784C8.14307 11.7966 8.1384 12.035 8.18231 12.2566ZM9.72012 8.48923C10.3814 9.90244 8.79407 12.0474 7.45478 10.6979C7.05427 10.2943 7.08996 9.93929 7.33682 9.63607C7.5741 10.2599 8.13695 10.7096 8.81622 10.4695C9.57623 10.201 9.77056 9.22725 9.58904 8.50928C9.57913 8.46993 9.55939 8.44461 9.53667 8.42581C9.54521 8.36098 9.49679 8.28987 9.4138 8.30851C9.1762 8.36173 8.93345 8.41311 8.69191 8.47135C8.5688 8.31477 8.58668 8.06178 8.50225 7.88264C8.38744 7.63942 8.12341 7.71261 7.91498 7.79065C7.80187 7.83301 7.6827 7.89651 7.59319 7.98131C7.50191 8.06787 7.50602 8.14549 7.53671 8.26481C7.56161 8.36173 7.62397 8.4447 7.68464 8.52014C7.73411 8.58181 7.82193 8.63946 7.83748 8.72142C7.83836 8.7261 7.84094 8.72919 7.84239 8.73329C7.64717 8.81224 7.45913 8.90724 7.28163 9.0228C7.27994 9.02213 7.2789 9.02088 7.2772 9.02029C7.05999 8.95069 6.73578 8.83748 6.7842 8.5402C6.82352 8.29856 7.05927 8.1079 7.22556 7.95775C7.26713 7.92024 7.28035 7.85181 7.26617 7.7985C7.21065 7.59071 7.15071 7.3484 7.15643 7.12122C7.24731 7.12674 7.33682 7.12122 7.41731 7.10167C7.47307 7.08822 7.49804 7.03751 7.49603 6.98729C7.65878 7.08605 7.82862 7.22692 7.86689 7.25374C7.92006 7.29109 7.97396 7.27855 8.01296 7.24438C8.02142 7.24898 8.02834 7.25474 8.03882 7.25775C8.15202 7.29025 8.26167 7.29844 8.37841 7.27839C8.65767 7.23059 8.82517 7.16283 8.87198 7.55804C8.8831 7.65137 8.93587 7.7162 9.03038 7.7223C9.31269 7.74043 9.59758 7.73375 9.88094 7.73291C9.94483 7.90879 9.90994 8.07306 9.86668 8.24659C9.76452 8.24049 9.6663 8.37418 9.72012 8.48923ZM9.29287 8.57404C9.29311 8.58097 9.29118 8.58682 9.29222 8.59401C9.37706 9.17152 9.33154 9.88598 8.73034 10.1469C8.18408 10.3842 7.76513 9.89676 7.53583 9.43655C8.01038 9.03759 8.81268 8.74649 9.29287 8.57404ZM8.03132 8.66319C8.00715 8.48614 7.85069 8.369 7.81734 8.19446C7.95744 8.0774 8.12205 8.0088 8.29785 7.97054C8.39807 8.13079 8.39799 8.34778 8.48082 8.52374C8.3287 8.56409 8.17901 8.61113 8.03132 8.66319ZM9.6746 7.30905C9.65792 7.33412 9.64946 7.35901 9.64439 7.38341C9.47858 7.38316 9.31277 7.384 9.14736 7.39085C9.08847 7.19258 9.01039 7.01177 8.79979 6.94192C8.76514 6.93039 8.73018 6.92663 8.69513 6.9258C8.69295 6.92312 8.69207 6.92011 8.68949 6.91752C8.57122 6.79838 8.44803 6.67965 8.35706 6.53569C8.28761 6.42582 8.77562 6.16864 8.83282 6.13255C8.90815 6.08501 8.92298 5.99594 8.88729 5.91723C8.6969 5.4978 8.66999 5.00024 8.80986 4.56159C8.97696 4.03738 9.26773 4.3106 9.46577 4.62259C9.44377 4.64924 9.42701 4.68057 9.42701 4.71909C9.42653 5.24263 9.33831 5.75857 9.3375 6.28052C9.33734 6.35371 9.39301 6.3868 9.44667 6.38262C9.43378 6.43885 9.45296 6.50502 9.50718 6.54764C9.68499 6.6875 9.9665 6.68717 10.1888 6.62735C10.1385 6.91134 9.82373 7.08638 9.6746 7.30905ZM10.3752 5.30295C10.2458 4.9964 9.99083 4.7998 9.72391 4.62902C9.69047 4.56234 9.65108 4.49116 9.60709 4.42097C10.0294 4.46927 10.5971 4.29974 10.5004 4.95379C10.4879 5.03918 10.5083 5.11471 10.5825 5.16275C10.8031 5.30546 10.9908 5.45368 11.1279 5.68529C11.2196 5.84011 11.1948 5.94723 11.1137 6.02242C11.0506 6.0083 10.9777 6.04716 10.9638 6.11007C10.8008 6.17274 10.5862 6.19095 10.454 6.19747C10.4846 5.89609 10.4926 5.58068 10.3752 5.30295ZM10.6792 7.70191C10.6939 7.58402 10.7172 7.4607 10.7144 7.34364C10.7349 7.34565 10.7552 7.3479 10.7763 7.34882C10.8395 7.35158 10.9519 7.33295 11.0373 7.34565C11.0138 7.45995 11.0415 7.5755 11.0628 7.69824C10.9349 7.69815 10.8071 7.69949 10.6792 7.70191ZM11.3324 7.19032C11.3277 7.18406 11.3254 7.17679 11.3192 7.17127C11.2205 7.08379 11.1061 7.06433 10.9794 7.05814C10.8925 7.05388 10.7055 7.09206 10.6316 7.03274C10.5692 6.98261 10.4958 6.99598 10.4475 7.03608C10.5405 6.92479 10.6091 6.80122 10.6208 6.61966C10.7981 6.58791 10.9775 6.52608 11.1313 6.43893C11.2578 6.59902 11.3774 6.72686 11.3277 7.08471C11.3226 7.12031 11.323 7.15682 11.3324 7.19032Z" fill="#333333"/>
</svg>
