<svg width="19" height="17" viewBox="0 0 19 17" fill="none" xmlns="http://www.w3.org/2000/svg">
<path d="M5.54237 5.95444C5.60127 6.01333 5.67859 6.04294 5.75591 6.04294C5.83324 6.04294 5.91056 6.01333 5.96946 5.95444C6.08756 5.83634 6.08756 5.64545 5.96946 5.52735C5.66289 5.22047 5.66289 4.72149 5.96946 4.41462C6.23224 4.15184 6.37722 3.80267 6.37722 3.43116C6.37722 3.05965 6.23254 2.71048 5.96946 2.44771C5.85136 2.32961 5.66047 2.32961 5.54237 2.44771C5.42427 2.5658 5.42427 2.7567 5.54237 2.8748C5.69098 3.0234 5.77313 3.22094 5.77313 3.43116C5.77313 3.64138 5.69128 3.83892 5.54237 3.98753C5.0002 4.52969 5.0002 5.41227 5.54237 5.95444Z" fill="#333333"/>
<path d="M12.1875 5.95444C12.2464 6.01333 12.3237 6.04294 12.4011 6.04294C12.4784 6.04294 12.5557 6.01333 12.6146 5.95444C12.7327 5.83634 12.7327 5.64545 12.6146 5.52735C12.308 5.22047 12.308 4.72149 12.6146 4.41462C12.8774 4.15184 13.0224 3.80267 13.0224 3.43116C13.0224 3.05965 12.8777 2.71048 12.6146 2.44771C12.4965 2.32961 12.3056 2.32961 12.1875 2.44771C12.0694 2.5658 12.0694 2.7567 12.1875 2.8748C12.3361 3.0234 12.4183 3.22094 12.4183 3.43116C12.4183 3.64138 12.3364 3.83892 12.1875 3.98753C11.6453 4.52969 11.6453 5.41227 12.1875 5.95444Z" fill="#333333"/>
<path d="M8.865 4.14242C8.9239 4.20132 9.00122 4.23092 9.07855 4.23092C9.15587 4.23092 9.23319 4.20132 9.29209 4.14242C9.41019 4.02433 9.41019 3.83343 9.29209 3.71533C8.98552 3.40846 8.98552 2.90948 9.29209 2.6026C9.55487 2.33983 9.69985 1.99066 9.69985 1.61915C9.69985 1.24763 9.55517 0.898472 9.29209 0.635694C9.17399 0.517594 8.9831 0.517594 8.865 0.635694C8.7469 0.753793 8.7469 0.944685 8.865 1.06278C9.01361 1.21139 9.09576 1.40893 9.09576 1.61915C9.09576 1.82937 9.01391 2.02691 8.865 2.17551C8.32283 2.71768 8.32283 3.60026 8.865 4.14242Z" fill="#333333"/>
<path d="M7.65542 8.3122C7.67747 8.3122 7.69982 8.30979 7.72218 8.30495C8.15652 8.20709 8.60566 8.15755 9.05751 8.15755C9.05872 8.15755 9.05993 8.15755 9.06144 8.15755C9.22817 8.15755 9.36349 8.02254 9.36349 7.85581C9.36349 7.68878 9.22847 7.55347 9.06144 7.55347C9.06023 7.55347 9.05872 7.55347 9.05721 7.55347C8.56095 7.55347 8.06711 7.60814 7.58928 7.71566C7.42647 7.75221 7.32438 7.91381 7.36093 8.07661C7.39295 8.21706 7.51739 8.3122 7.65542 8.3122Z" fill="#333333"/>
<path d="M2.96651 13.2876C2.98493 13.2913 3.00306 13.2928 3.02088 13.2928C3.16405 13.2928 3.29121 13.1907 3.31779 13.0451C3.63161 11.3241 4.66883 9.7927 6.09236 8.94939C6.23583 8.86452 6.28325 8.67906 6.19838 8.53559C6.1132 8.39212 5.92805 8.3447 5.78458 8.42957C4.21274 9.36077 3.0686 11.0456 2.72367 12.9364C2.69346 13.1007 2.8022 13.2577 2.96651 13.2876Z" fill="#333333"/>
<path d="M16.8009 12.8766C16.2536 9.66253 13.7481 7.10875 10.5586 6.49016C10.5637 6.44184 10.5715 6.39321 10.5715 6.34518C10.5715 5.51245 9.89406 4.83496 9.06132 4.83496C8.22859 4.83496 7.5511 5.51245 7.5511 6.34518C7.5511 6.39321 7.55865 6.44184 7.56409 6.49016C4.3745 7.10875 1.86905 9.66253 1.32174 12.8766C0.690473 13.2339 0 13.7598 0 14.3497C0 15.8855 4.68531 16.917 9.06132 16.917C13.4373 16.917 18.1226 15.8855 18.1226 14.3497C18.1226 13.7598 17.4322 13.2339 16.8009 12.8766ZM8.157 6.39743C8.15579 6.37992 8.15519 6.3624 8.15519 6.34548C8.15519 5.8459 8.56174 5.43935 9.06132 5.43935C9.5609 5.43935 9.96745 5.8459 9.96745 6.34548C9.96745 6.3627 9.96685 6.37992 9.96564 6.39743C9.95144 6.39592 9.93725 6.39532 9.92335 6.39381C9.81945 6.38233 9.71494 6.37418 9.60983 6.36693C9.57117 6.36421 9.53281 6.36028 9.49415 6.35817C9.35098 6.35032 9.20691 6.34579 9.06162 6.34579C8.91634 6.34579 8.77226 6.35032 8.6291 6.35817C8.59043 6.36028 8.55207 6.36421 8.51341 6.36693C8.4083 6.37418 8.30379 6.38263 8.19989 6.39381C8.18539 6.39532 8.1712 6.39562 8.157 6.39743ZM7.97366 7.03112C8.13586 7.00696 8.29896 6.98944 8.46267 6.97615C8.4962 6.97343 8.52972 6.97102 8.56325 6.9686C8.89489 6.94625 9.22805 6.94625 9.55969 6.9686C9.59322 6.97102 9.62675 6.97343 9.66027 6.97615C9.82398 6.98944 9.98709 7.00696 10.1493 7.03112C13.296 7.50684 15.7845 10.0129 16.2361 13.1674C16.25 13.2644 16.2611 13.3617 16.2711 13.4589C16.2744 13.4924 16.279 13.5257 16.282 13.5592C16.2938 13.693 16.3025 13.8268 16.3068 13.9606C11.5616 15.0604 6.5616 15.0604 1.81649 13.9606C1.82102 13.8268 1.82948 13.693 1.84126 13.5592C1.84428 13.5257 1.84851 13.4924 1.85213 13.4589C1.8621 13.3614 1.87328 13.2641 1.88717 13.1674C2.33842 10.0129 4.82697 7.50654 7.97366 7.03112ZM9.06132 16.3129C3.89758 16.3129 0.604088 15.0235 0.604088 14.3497C0.604088 14.234 0.747257 13.979 1.22751 13.6465C1.2263 13.6637 1.2269 13.6806 1.22569 13.6978C1.21543 13.8634 1.20818 14.0301 1.20818 14.1986V14.4366L1.43984 14.4925C3.93291 15.0906 6.49727 15.3902 9.06132 15.3902C11.6254 15.3902 14.1897 15.0909 16.6828 14.4925L16.9145 14.4366V14.1986C16.9145 14.0301 16.9072 13.8637 16.8969 13.6978C16.8957 13.6806 16.8963 13.6637 16.8951 13.6465C17.3754 13.979 17.5186 14.234 17.5186 14.3497C17.5186 15.0235 14.2251 16.3129 9.06132 16.3129Z" fill="#333333"/>
</svg>
