<svg width="17" height="11" viewBox="0 0 17 11" fill="none" xmlns="http://www.w3.org/2000/svg">
<path d="M16.0579 7.04086C15.5919 6.15172 14.9935 5.33728 14.2891 4.60775C14.2239 4.05892 14.0031 3.52502 13.6092 3.08894C12.9625 2.37504 12.0679 1.91247 11.1122 1.78612C11.1054 1.7766 11.102 1.76508 11.0952 1.75556C10.7352 1.26308 10.183 0.981201 9.57979 0.981201H6.85731C6.25413 0.981201 5.70189 1.26308 5.34187 1.75556C5.33509 1.76508 5.33168 1.7766 5.3249 1.78612C4.36918 1.91247 3.47526 2.37504 2.82795 3.08964C2.43399 3.52505 2.21391 4.05895 2.148 4.60711C1.44359 5.33731 0.846524 6.14971 0.395505 7.01033C-0.0548443 7.77246 -0.0426176 8.71254 0.426741 9.46448C0.854675 10.1492 1.6623 10.554 2.47812 10.554C2.75866 10.554 3.03988 10.5065 3.3075 10.4059L5.89207 9.37212C6.22082 9.47604 6.56183 9.53988 6.91096 9.53988C6.97346 9.53988 7.03594 9.52495 7.09844 9.52154C7.37558 9.84622 7.77498 10.0412 8.22396 10.0412C8.67091 10.0412 9.06897 9.84622 9.34407 9.52221C9.4025 9.52492 9.4616 9.53918 9.51999 9.53918C9.86708 9.53918 10.2074 9.47397 10.5375 9.36938L13.1486 10.4127C13.4155 10.5105 13.6954 10.5574 13.9718 10.5574C14.7843 10.5574 15.579 10.1553 16.011 9.46448C16.4797 8.71254 16.4919 7.77243 16.0579 7.04086ZM6.11693 8.01629C6.04424 7.98572 5.97632 7.94904 5.90841 7.91099C5.83301 7.86887 5.75965 7.8227 5.69103 7.77039C5.65231 7.74186 5.61019 7.71674 5.57351 7.68547L5.30927 7.41037L3.86244 5.90174C3.82102 5.85828 3.78771 5.81004 3.7524 5.7625C3.73473 5.73805 3.71231 5.7163 3.69601 5.69118C3.67156 5.65246 3.65459 5.61034 3.63351 5.56958C3.6145 5.53153 3.59138 5.49555 3.57578 5.45614C3.56152 5.41946 3.55337 5.38074 3.54251 5.34339C3.52824 5.29585 3.51127 5.24965 3.50242 5.20141C3.49631 5.17085 3.49631 5.13961 3.49223 5.10834C3.48545 5.05062 3.47797 4.99219 3.47797 4.9331C3.47934 4.5989 3.59616 4.2647 3.83525 4.00116C4.14907 3.65407 4.55118 3.39594 4.99338 3.24855C5.00494 3.31717 5.02394 3.38441 5.04295 3.45096C5.04974 3.47678 5.04974 3.50327 5.05789 3.5284L6.5285 8.14668C6.38455 8.12089 6.24938 8.07064 6.11693 8.01629ZM12.9449 5.10838C12.9408 5.13961 12.9408 5.17088 12.9347 5.20145C12.9259 5.25035 12.9089 5.29655 12.8946 5.34409C12.883 5.38144 12.8756 5.41949 12.8613 5.45617C12.8443 5.49896 12.8199 5.53835 12.7988 5.5791C12.7791 5.61645 12.7642 5.65517 12.7411 5.69051C12.6928 5.76524 12.6378 5.83656 12.5747 5.90177L10.8751 7.67397C10.7549 7.7779 10.6225 7.86008 10.4859 7.93277C10.4465 7.95315 10.4078 7.9742 10.3677 7.99254C10.221 8.05841 10.0696 8.11344 9.91195 8.14333L11.3791 3.52776C11.3873 3.50331 11.3866 3.47818 11.3934 3.45373C11.4131 3.38581 11.4321 3.31787 11.4437 3.24858C11.8852 3.39597 12.288 3.6541 12.6018 4.00052C12.8409 4.26477 12.9578 4.59896 12.9591 4.93316C12.9591 4.99222 12.9516 5.05065 12.9449 5.10838Z" fill="#333333"/>
</svg>
