<svg width="18" height="16" viewBox="0 0 18 16" fill="none" xmlns="http://www.w3.org/2000/svg">
<path d="M13.4947 4.55073C13.1164 4.1967 12.7852 3.68508 12.4346 3.14333C12.0267 2.51323 11.605 1.86172 11.0411 1.34559C10.357 0.719387 9.59156 0.415039 8.70104 0.415039C7.81052 0.415039 7.04507 0.719387 6.36099 1.34552C5.79705 1.86169 5.37535 2.5132 4.96751 3.14326C4.61689 3.68501 4.28569 4.1967 3.9074 4.55066C2.47065 5.89521 0.06604 8.14553 0.06604 11.2792C0.06604 12.9235 0.835331 14.1276 2.35263 14.8581C3.73662 15.5244 5.75387 15.8347 8.70104 15.8347C11.6482 15.8347 13.6655 15.5244 15.0494 14.8581C16.5667 14.1276 17.336 12.9235 17.336 11.2792C17.336 8.14553 14.9314 5.89521 13.4947 4.55073ZM14.5662 13.8267C13.3555 14.4096 11.437 14.693 8.70104 14.693C5.96509 14.693 4.04654 14.4097 2.83585 13.8267C1.69924 13.2795 1.19233 12.4938 1.19233 11.2792C1.19233 8.64539 3.28598 6.68609 4.67136 5.38961C5.15138 4.94042 5.53665 4.34523 5.9092 3.76963C6.27798 3.19988 6.65927 2.61075 7.11577 2.19295C7.58999 1.75894 8.09369 1.5568 8.70104 1.5568C9.30839 1.5568 9.81209 1.75894 10.2863 2.19298C10.7428 2.61078 11.1241 3.19992 11.4928 3.76967C11.8654 4.34527 12.2507 4.94049 12.7307 5.38964C14.1161 6.68612 16.2097 8.64542 16.2097 11.2792C16.2097 12.4938 15.7028 13.2795 14.5662 13.8267Z" fill="#333333"/>
</svg>
