<svg width="17" height="16" viewBox="0 0 17 16" fill="none" xmlns="http://www.w3.org/2000/svg">
<path d="M16.0566 7.93704C16.0566 7.54455 15.7312 7.22635 15.3298 7.22635H15.2635C14.9608 5.62137 13.652 4.35667 12.0027 4.0832C11.6828 2.23891 10.0372 0.830078 8.06132 0.830078C6.08547 0.830078 4.4398 2.23891 4.11994 4.0832C2.47063 4.35667 1.16193 5.62137 0.859172 7.22635H0.792884C0.391472 7.22635 0.06604 7.54455 0.06604 7.93704C0.06604 10.745 1.5882 13.2115 3.86777 14.5902C3.7632 14.7133 3.70026 14.8714 3.70026 15.0439C3.70026 15.4364 4.02569 15.7546 4.4271 15.7546H11.6955C12.097 15.7546 12.4224 15.4364 12.4224 15.0439C12.4224 14.8714 12.3594 14.7133 12.2549 14.5902C14.5345 13.2115 16.0566 10.745 16.0566 7.93704ZM4.79053 5.44957C5.19194 5.44957 5.51737 5.13137 5.51737 4.73888C5.51737 3.3673 6.65856 2.25146 8.06132 2.25146C9.46404 2.25146 10.6053 3.3673 10.6053 4.73888C10.6053 5.13137 10.9307 5.44957 11.3321 5.44957C12.4823 5.44957 13.4562 6.20007 13.7697 7.22635H10.2419C10.563 6.99083 10.6281 6.54537 10.3872 6.23138C10.1463 5.91735 9.69076 5.85377 9.36964 6.08924L8.78817 6.51566V4.95209C8.78817 4.5596 8.46274 4.2414 8.06132 4.2414C7.65991 4.2414 7.33448 4.5596 7.33448 4.95209V6.51566L6.753 6.08924C6.43188 5.85372 5.9763 5.9174 5.73542 6.23138C5.49455 6.54537 5.55967 6.99083 5.88079 7.22635L5.88084 7.2264H2.35293C2.66645 6.20007 3.64032 5.44957 4.79053 5.44957ZM8.06132 14.3332C4.69996 14.3332 1.92259 11.8413 1.55985 8.64774H8.05958C8.05997 8.64774 8.0604 8.64778 8.06079 8.64778C8.06098 8.64778 8.06118 8.64774 8.06137 8.64774C8.06157 8.64774 8.06176 8.64778 8.06195 8.64778C8.06234 8.64778 8.06278 8.64774 8.06316 8.64774H14.5628C14.2 11.8413 11.4227 14.3332 8.06132 14.3332Z" fill="#333333"/>
</svg>
