<svg width="17" height="10" viewBox="0 0 17 10" fill="none" xmlns="http://www.w3.org/2000/svg">
<path d="M12.9194 2.37451C12.9194 1.83417 13.3789 1.35772 13.9435 1.35772C14.5082 1.35772 14.9676 1.79734 14.9676 2.33768C14.9676 2.87802 14.5082 3.31764 13.9435 3.31764C13.6428 3.31764 13.399 3.55087 13.399 3.83866C13.399 4.12634 13.6428 4.35968 13.9435 4.35968C15.1087 4.35968 16.0566 3.45267 16.0566 2.33762C16.0566 1.22268 15.1087 0.315675 13.9435 0.315675C12.883 0.315675 12.0026 1.06725 11.8531 2.04298C11.1571 2.27956 10.5189 2.39528 9.91085 2.39528C9.91074 2.39528 9.91058 2.39528 9.91042 2.39528C8.62116 2.39507 7.66016 1.87039 6.64285 1.31506C6.0351 0.983218 5.40673 0.640148 4.70422 0.416088C4.21148 0.258901 3.71232 0.179199 3.22065 0.179199C1.40979 0.179199 0.273061 1.24705 0.22552 1.29239C0.0960877 1.41624 0.0404168 1.59404 0.0771359 1.76565C0.113909 1.93721 0.238388 2.07961 0.408307 2.14458C2.04484 2.77096 2.94666 3.82361 3.81871 4.84154C4.68511 5.85272 5.57552 6.89054 7.10981 7.27714C6.59735 7.72444 6.10116 8.38199 6.10116 9.25262C6.10116 9.54031 6.34495 9.77354 6.64565 9.77354H10.2393C10.2397 9.77354 10.2401 9.77354 10.2403 9.77354C10.5411 9.77354 10.7848 9.54031 10.7848 9.25262C10.7848 9.23995 10.7844 9.22738 10.7834 9.21491C10.7687 8.31882 10.2281 7.6518 9.6964 7.21037C11.5831 6.51573 12.9194 4.29744 12.9194 2.37451ZM7.30562 8.7317C7.54995 8.18853 8.12319 7.80697 8.44176 7.62836C8.75942 7.80759 9.33287 8.19054 9.57822 8.7317H7.30562ZM10.7978 5.11877C10.1248 5.94067 9.29228 6.39337 8.4535 6.39337C6.55633 6.39337 5.71992 5.41702 4.66094 4.18095C3.89823 3.29074 3.05068 2.30151 1.69057 1.57637C2.0695 1.39193 2.5904 1.22134 3.22071 1.22134C3.59506 1.22134 3.97829 1.28301 4.35986 1.40481C4.96045 1.59631 5.51554 1.8994 6.10321 2.22016C7.19907 2.81846 8.3323 3.43721 9.91036 3.43732C9.91058 3.43732 9.91074 3.43732 9.91095 3.43732C10.5017 3.43732 11.1078 3.34989 11.7465 3.17127C11.5999 3.8537 11.2676 4.54489 10.7978 5.11877Z" fill="#333333"/>
</svg>
