<svg width="17" height="14" viewBox="0 0 17 14" fill="none" xmlns="http://www.w3.org/2000/svg">
<path d="M2.36473 13.2816H15.0775C16.0648 13.2816 16.866 12.4804 16.866 11.493V3.89001C16.866 2.90264 16.0648 2.10145 15.0775 2.10145H11.3873C11.1613 2.10145 10.9784 2.28429 10.9784 2.51036C10.9784 2.73642 11.1613 2.91927 11.3873 2.91927H15.0775C15.616 2.91927 16.0515 3.35477 16.0515 3.89333V11.4964C16.0515 12.0349 15.616 12.4704 15.0775 12.4704H2.36473C1.82617 12.4704 1.39066 12.0349 1.39066 11.4964V3.89001C1.39066 3.35145 1.82617 2.91594 2.36473 2.91594H7.73706L6.37071 4.28229C6.21113 4.44187 6.21113 4.69785 6.37071 4.85743C6.45049 4.93721 6.55355 4.97711 6.65993 4.97711C6.76632 4.97711 6.86937 4.93721 6.94916 4.85743L9.01033 2.79626C9.1699 2.63669 9.1699 2.3807 9.01033 2.22113L6.94916 0.159964C6.78959 0.00038968 6.5336 0.00038968 6.37403 0.159964C6.21446 0.319538 6.21446 0.575521 6.37403 0.735095L7.74038 2.10145H2.36473C1.37737 2.10145 0.576172 2.90264 0.576172 3.89001V11.493C0.576172 12.4771 1.37737 13.2816 2.36473 13.2816Z" fill="#00AC4E"/>
</svg>
