<svg width="38" height="42" viewBox="0 0 38 42" fill="none" xmlns="http://www.w3.org/2000/svg">
<path d="M37.8345 32.7504L36.6441 21.8155C36.4935 20.4317 35.3301 19.3882 33.938 19.3882H33.0708V17.3981C33.0708 14.769 30.9318 12.6301 28.3028 12.6301C25.6737 12.6301 23.5348 14.7691 23.5348 17.3981V19.3881H22.6676C21.2756 19.3881 20.1122 20.4317 19.9615 21.8155L18.771 32.7504C18.5958 34.3601 19.8588 35.767 21.4771 35.767H35.1286C36.7451 35.7671 38.01 34.3622 37.8345 32.7504V32.7504ZM35.1286 34.4061H21.4772C20.6654 34.4061 20.0363 33.7036 20.1242 32.8978L21.3146 21.9629C21.39 21.271 21.9717 20.7492 22.6676 20.7492H23.5348V22.4667C23.5348 22.8425 23.8395 23.1472 24.2153 23.1472C24.5911 23.1472 24.8958 22.8425 24.8958 22.4667V17.3982C24.8958 15.5196 26.4242 13.9912 28.3029 13.9912C30.1815 13.9912 31.7099 15.5196 31.7099 17.3982V19.3882H27.4026C27.0268 19.3882 26.7221 19.6929 26.7221 20.0687C26.7221 20.4445 27.0268 20.7492 27.4026 20.7492H31.7099V22.4667C31.7099 22.8425 32.0146 23.1472 32.3904 23.1472C32.7662 23.1472 33.0709 22.8425 33.0709 22.4667V20.7492H33.9381C34.6342 20.7492 35.2158 21.271 35.2911 21.9629L36.4816 32.8977C36.5695 33.7047 35.9394 34.4061 35.1286 34.4061ZM30.6847 38.3189C30.3088 38.3189 30.0042 38.6236 30.0042 38.9994C30.0042 39.7499 29.3936 40.3604 28.6432 40.3604H2.95441C2.20399 40.3604 1.59342 39.7499 1.59342 38.9994V3.6136C1.59342 2.86318 2.20399 2.2526 2.95441 2.2526H22.0934V7.44139C22.0934 8.94231 23.3144 10.1634 24.8154 10.1634H30.6847C31.2896 10.1634 31.5934 9.42921 31.1658 9.00169C22.6467 0.482546 23.1982 0.962552 22.907 0.904795C22.813 0.886166 23.8968 0.89161 2.95441 0.89161C1.45349 0.89161 0.232422 2.11268 0.232422 3.6136V38.9994C0.232422 40.5004 1.45349 41.7214 2.95441 41.7214H28.6432C30.1441 41.7214 31.3652 40.5004 31.3652 38.9994C31.3652 38.6235 31.0605 38.3189 30.6847 38.3189ZM24.8154 8.80239C24.065 8.80239 23.4544 8.19181 23.4544 7.44139V3.21491L29.0418 8.80239H24.8154ZM11.0451 10.9293C11.0473 9.79931 10.1337 8.88379 9.0036 8.88379H7.63019C6.50456 8.88379 5.5887 9.79957 5.5887 10.9253V12.2935C5.5887 13.4192 6.50456 14.335 7.63019 14.335H9.00096C10.1245 14.335 11.0404 13.4209 11.0425 12.2974L11.0451 10.9293ZM9.68146 12.2949C9.68078 12.6694 9.37549 12.974 9.00096 12.974H7.63019C7.25498 12.974 6.94969 12.6687 6.94969 12.2935V10.9253C6.94969 10.5501 7.25498 10.2448 7.63019 10.2448H9.0036C9.38034 10.2448 9.68478 10.5499 9.6841 10.9266L9.68146 12.2949ZM11.0353 21.1364C11.0353 20.0107 10.1194 19.0949 8.99382 19.0949H7.63282C6.5072 19.0949 5.59133 20.0107 5.59133 21.1364V22.4974C5.59133 23.6231 6.5072 24.5389 7.63282 24.5389H8.99382C10.1194 24.5389 11.0353 23.6231 11.0353 22.4974V21.1364ZM9.67432 22.4974C9.67432 22.8726 9.36903 23.1779 8.99382 23.1779H7.63282C7.25762 23.1779 6.95233 22.8726 6.95233 22.4974V21.1364C6.95233 20.7612 7.25762 20.4559 7.63282 20.4559H8.99382C9.36903 20.4559 9.67432 20.7612 9.67432 21.1364V22.4974ZM8.99382 29.3024H7.63282C6.5072 29.3024 5.59133 30.2181 5.59133 31.3438V32.7048C5.59133 33.8305 6.5072 34.7463 7.63282 34.7463H8.99382C10.1194 34.7463 11.0353 33.8305 11.0353 32.7048V31.3438C11.0353 30.2181 10.1194 29.3024 8.99382 29.3024ZM9.67432 32.7048C9.67432 33.08 9.36903 33.3853 8.99382 33.3853H7.63282C7.25762 33.3853 6.95233 33.08 6.95233 32.7048V31.3438C6.95233 30.9686 7.25762 30.6633 7.63282 30.6633H8.99382C9.36903 30.6633 9.67432 30.9686 9.67432 31.3438V32.7048ZM19.0416 12.2899H14.3632C13.9874 12.2899 13.6827 11.9852 13.6827 11.6094C13.6827 11.2336 13.9874 10.9289 14.3632 10.9289H19.0416C19.4174 10.9289 19.7221 11.2336 19.7221 11.6094C19.7221 11.9852 19.4174 12.2899 19.0416 12.2899ZM17.0852 22.4974H14.3632C13.9874 22.4974 13.6827 22.1927 13.6827 21.8169C13.6827 21.4411 13.9874 21.1364 14.3632 21.1364H17.0852C17.461 21.1364 17.7657 21.4411 17.7657 21.8169C17.7657 22.1927 17.461 22.4974 17.0852 22.4974ZM16.0644 31.3438C16.4402 31.3438 16.7449 31.6485 16.7449 32.0243C16.7449 32.4001 16.4402 32.7048 16.0644 32.7048H14.3632C13.9874 32.7048 13.6827 32.4001 13.6827 32.0243C13.6827 31.6485 13.9874 31.3438 14.3632 31.3438H16.0644Z" fill="#00AC4E"/>
</svg>
