<svg width="76" height="58" viewBox="0 0 76 58" fill="none" xmlns="http://www.w3.org/2000/svg">
<path d="M68.0448 9.76701H66.3775V8.09985C66.3775 4.17509 63.1847 0.982178 59.26 0.982178H8.1692C4.24443 0.982178 1.05151 4.17522 1.05151 8.09985V41.5403C1.05151 45.4649 4.24456 48.658 8.1692 48.658H9.83636V50.3251C9.83636 54.2499 13.0294 57.4428 16.954 57.4428H68.0446C71.9693 57.4428 75.1624 54.2499 75.1624 50.3251V16.8847C75.1622 12.9599 71.9694 9.76701 68.0448 9.76701ZM69.9176 50.325C69.9176 51.3595 69.079 52.1981 68.0447 52.1981H16.954C15.9196 52.1981 15.081 51.3595 15.081 50.325V48.6579V46.0356V43.4133V16.8847C15.081 15.8501 15.9196 15.0116 16.954 15.0116H61.1329H63.7552H66.3775H68.0448C69.0792 15.0116 69.9178 15.8502 69.9178 16.8847V50.325H69.9176ZM6.29612 41.5402V8.09985C6.29612 7.06538 7.13472 6.22678 8.1692 6.22678H59.26C60.2943 6.22678 61.1329 7.06538 61.1329 8.09985V9.76701H16.954C13.0294 9.76701 9.83636 12.96 9.83636 16.8847V43.4133H8.16932C7.13472 43.4133 6.29612 42.5747 6.29612 41.5402Z" fill="#00AC4E"/>
<path d="M68.0451 57.5046H16.9545C12.996 57.5046 9.77557 54.2841 9.77557 50.3257V48.7197H8.16974C4.21131 48.7197 0.990845 45.4993 0.990845 41.5409V8.10052C0.990845 4.14209 4.21131 0.921631 8.16974 0.921631H59.2605C63.2188 0.921631 66.4393 4.14209 66.4393 8.10052V9.70646H68.0453C72.0036 9.70646 75.2241 12.9269 75.2241 16.8853V50.3257C75.224 54.2841 72.0036 57.5046 68.0451 57.5046ZM8.16974 1.04393C4.27876 1.04393 1.11327 4.20955 1.11327 8.10052V41.541C1.11327 45.4318 4.27876 48.5974 8.16974 48.5974H9.89811V50.3258C9.89811 54.2167 13.0636 57.3823 16.9546 57.3823H68.0451C71.9361 57.3823 75.1017 54.2168 75.1017 50.3258V16.8853C75.1017 12.9944 71.9363 9.82889 68.0453 9.82889H66.3168V8.10052C66.3168 4.20955 63.1515 1.04405 59.2605 1.04405H8.16974V1.04393ZM68.0453 52.26H16.9546C15.888 52.26 15.0203 51.3922 15.0203 50.3257V16.8853C15.0203 15.8188 15.888 14.9511 16.9546 14.9511H68.0453C69.1119 14.9511 69.9795 15.8188 69.9795 16.8853V50.3257C69.9794 51.3922 69.1118 52.26 68.0453 52.26ZM16.9546 15.0735C15.9555 15.0735 15.1427 15.8864 15.1427 16.8853V50.3257C15.1427 51.3248 15.9555 52.1375 16.9546 52.1375H68.0453C69.0443 52.1375 69.8571 51.3248 69.8571 50.3257V16.8853C69.8571 15.8863 69.0443 15.0735 68.0453 15.0735H16.9546ZM9.89811 43.4751H8.16986C7.10331 43.4751 6.23546 42.6074 6.23546 41.5409V8.10052C6.23546 7.03397 7.10319 6.16623 8.16974 6.16623H59.2605C60.327 6.16623 61.1947 7.03397 61.1947 8.10052V9.82889H16.9546C13.0636 9.82889 9.89811 12.9944 9.89811 16.8853V43.4751ZM8.16974 6.28853C7.17065 6.28853 6.35788 7.1013 6.35788 8.10039V41.5409C6.35788 42.5398 7.17077 43.3527 8.16986 43.3527H9.77581V16.8853C9.77581 12.9269 12.9963 9.70646 16.9547 9.70646H61.0724V8.10052C61.0724 7.10142 60.2596 6.28866 59.2606 6.28866H8.16974V6.28853Z" fill="#00AC4E"/>
<path d="M62.4511 44.4315L60.7254 42.7057L52.3698 34.3501C51.6383 33.6185 50.4524 33.6185 49.7209 34.3501L44.9729 39.0979L36.1033 30.2283C35.3718 29.4967 34.1858 29.4967 33.4544 30.2283L20.2695 43.4131L19.251 44.4315C18.8139 44.8686 18.6382 45.4677 18.7233 46.0354C18.7808 46.4178 18.9564 46.7861 19.251 47.0805L20.3107 48.1401C20.5899 48.4193 20.9355 48.5916 21.2967 48.6577C21.5203 48.6986 21.7499 48.6986 21.9734 48.6577C22.3347 48.5917 22.6803 48.4195 22.9595 48.1401L25.0642 46.0354L27.6865 43.4131L33.4543 37.6454C34.1858 36.9138 35.3718 36.9138 36.1031 37.6454L41.8707 43.4131L44.493 46.0354L46.5979 48.1401C46.8771 48.4193 47.2227 48.5916 47.584 48.6577C47.8075 48.6986 48.0371 48.6986 48.2606 48.6577C48.6219 48.5917 48.9674 48.4195 49.2467 48.1401L50.3064 47.0805C50.6007 46.786 50.7765 46.4178 50.834 46.0354C50.919 45.4677 50.7436 44.8687 50.3064 44.4315L49.2879 43.4131L48.6815 42.8066L51.0451 40.4427L54.0156 43.4131L56.6379 46.0354L58.7425 48.1401C59.0064 48.4039 59.3298 48.5721 59.6692 48.6456C60.1143 48.7419 60.5872 48.6748 60.9928 48.4441C61.1355 48.3628 61.2699 48.2619 61.3916 48.1402L62.4511 47.0806C63.138 46.3939 63.1799 45.3064 62.577 44.5706C62.5376 44.5227 62.4958 44.4763 62.4511 44.4315Z" fill="#00AC4E"/>
<path d="M47.9229 48.7503C47.806 48.7503 47.6885 48.7395 47.5735 48.7186C47.1862 48.6478 46.8341 48.463 46.5552 48.1841L36.0604 37.6893C35.7182 37.347 35.2632 37.1586 34.7792 37.1586C34.2953 37.1586 33.8402 37.347 33.4981 37.6893L23.0033 48.1841C22.7246 48.463 22.3724 48.6478 21.985 48.7186C21.7552 48.7605 21.5161 48.7605 21.2862 48.7186C20.8989 48.6478 20.5468 48.463 20.2679 48.1841L19.2082 47.1245C18.9135 46.83 18.7251 46.4567 18.6633 46.0452C18.5726 45.4402 18.7763 44.821 19.2082 44.3891L33.4116 30.1858C33.7769 29.8205 34.2627 29.6193 34.7793 29.6193C35.296 29.6193 35.7817 29.8205 36.1471 30.1858L44.9735 39.0123L49.6782 34.3077C50.0436 33.9424 50.5292 33.7411 51.046 33.7411C51.5627 33.7411 52.0484 33.9424 52.4137 34.3077L62.495 44.3891C62.5395 44.4337 62.5834 44.4819 62.625 44.5323C63.2573 45.3041 63.2014 46.4184 62.495 47.1247L61.4355 48.1842C61.3133 48.3064 61.1748 48.4119 61.0237 48.498C60.7339 48.663 60.4036 48.7502 60.0683 48.7502C60.0682 48.7502 60.0682 48.7502 60.0682 48.7502C59.9301 48.7502 59.7917 48.7355 59.6571 48.7062C59.294 48.6278 58.9631 48.4473 58.7 48.1842L51.046 40.5302L48.7689 42.8075L50.3506 44.3892C50.7824 44.821 50.986 45.4402 50.8953 46.0454C50.8336 46.4566 50.6453 46.8297 50.3506 47.1247L49.2909 48.1842C49.012 48.4631 48.6599 48.648 48.2726 48.7187C48.1574 48.7395 48.0399 48.7503 47.9229 48.7503ZM34.7793 37.0361C35.296 37.0361 35.7817 37.2374 36.1471 37.6027L46.6419 48.0975C46.9032 48.3588 47.233 48.5319 47.5957 48.5981C47.8109 48.6376 48.0352 48.6376 48.2504 48.5981C48.6132 48.5319 48.943 48.3588 49.2042 48.0975L50.2639 47.038C50.5399 46.7618 50.7163 46.4123 50.7742 46.027C50.8591 45.4601 50.6684 44.8801 50.2639 44.4755L48.5957 42.8073L51.0458 40.3569L58.7865 48.0975C59.0331 48.344 59.3429 48.5131 59.6829 48.5865C60.116 48.68 60.58 48.6095 60.9632 48.3915C61.1047 48.3109 61.2346 48.2119 61.349 48.0975L62.4084 47.038C63.07 46.3765 63.1224 45.3326 62.5304 44.61C62.4913 44.5627 62.4503 44.5174 62.4084 44.4755L52.3271 34.3941C51.9849 34.0518 51.5299 33.8634 51.046 33.8634C50.562 33.8634 50.107 34.0518 49.7648 34.3941L44.9735 39.1853L36.0605 30.2723C35.7183 29.93 35.2633 29.7416 34.7793 29.7416C34.2954 29.7416 33.8405 29.93 33.4982 30.2723L19.2949 44.4755C18.8903 44.8801 18.6995 45.4602 18.7846 46.027C18.8424 46.4124 19.0189 46.762 19.2949 47.038L20.3546 48.0975C20.6158 48.3588 20.9456 48.5319 21.3084 48.5981C21.5238 48.6376 21.7479 48.6376 21.9632 48.5981C22.326 48.5319 22.6559 48.3588 22.917 48.0975L33.4117 37.6027C33.7769 37.2374 34.2627 37.0361 34.7793 37.0361Z" fill="#00AC4E"/>
<path d="M61.1328 18.2902C60.316 17.9693 59.427 17.7928 58.4979 17.7928C54.5129 17.7928 51.2709 21.0349 51.2709 25.0197C51.2709 29.0047 54.5129 32.2466 58.4979 32.2466C59.4271 32.2466 60.3161 32.0702 61.1328 31.7492C62.1352 31.3552 63.0287 30.7436 63.7551 29.9728C64.9755 28.6783 65.7247 26.935 65.7247 25.0197C65.7247 23.1045 64.9755 21.3611 63.7551 20.0666C63.0287 19.2958 62.1351 18.6841 61.1328 18.2902ZM58.4975 27.002C57.4029 27.002 56.5154 26.1144 56.5154 25.0197C56.5154 23.925 57.4029 23.0376 58.4975 23.0376C59.5924 23.0376 60.4799 23.9251 60.4799 25.0197C60.48 26.1144 59.5925 27.002 58.4975 27.002Z" fill="#00AC4E"/>
<path d="M58.4984 32.3083C54.4796 32.3083 51.2102 29.0389 51.2102 25.0203C51.2102 21.0016 54.4796 17.7322 58.4984 17.7322C59.4144 17.7322 60.3086 17.901 61.1557 18.2339C62.1491 18.6242 63.0636 19.2436 63.8003 20.0252C65.0811 21.3838 65.7865 23.1577 65.7865 25.0203C65.7865 26.8828 65.0811 28.6567 63.8003 30.0154C63.0638 30.7968 62.1495 31.4161 61.1557 31.8068C60.3087 32.1395 59.4148 32.3083 58.4984 32.3083ZM58.4984 17.8546C54.5472 17.8546 51.3326 21.0691 51.3326 25.0203C51.3326 28.9715 54.5472 32.1859 58.4984 32.1859C59.3992 32.1859 60.2782 32.02 61.1111 31.6927C62.0879 31.3088 62.987 30.6998 63.7111 29.9314C64.9705 28.5955 65.664 26.8515 65.664 25.0203C65.664 23.1891 64.9705 21.4449 63.7111 20.1091C62.9868 19.3407 62.0876 18.7316 61.1111 18.3478C60.2781 18.0206 59.3992 17.8546 58.4984 17.8546ZM58.4982 27.0639C57.3714 27.0639 56.4548 26.1472 56.4548 25.0204C56.4548 23.8936 57.3714 22.977 58.4982 22.977C59.6251 22.977 60.5418 23.8937 60.5418 25.0204C60.5419 26.1472 59.6251 27.0639 58.4982 27.0639ZM58.4982 23.0993C57.439 23.0993 56.5772 23.9611 56.5772 25.0203C56.5772 26.0796 57.439 26.9413 58.4982 26.9413C59.5575 26.9413 60.4194 26.0795 60.4194 25.0203C60.4195 23.9611 59.5576 23.0993 58.4982 23.0993Z" fill="#00AC4E"/>
</svg>
