<svg width="33" height="33" viewBox="0 0 33 33" fill="none" xmlns="http://www.w3.org/2000/svg">
<path fill-rule="evenodd" clip-rule="evenodd" d="M21.7645 20.4744L17.8524 16.5403L21.7865 12.6281C22.1491 12.2676 22.1501 11.6824 21.7902 11.3204C21.4302 10.9585 20.8451 10.9562 20.4825 11.3168L16.5484 15.2289L12.6362 11.2948C12.2763 10.9329 11.6911 10.9306 11.3285 11.2911C10.9659 11.6517 10.9649 12.2369 11.3248 12.5988L15.237 16.533L11.3029 20.4451C10.9403 20.8057 10.9393 21.3909 11.2992 21.7528C11.6591 22.1147 12.2443 22.117 12.6069 21.7565L16.541 17.8443L20.4532 21.7784C20.8131 22.1404 21.3983 22.1426 21.7609 21.7821C22.1235 21.4215 22.1245 20.8363 21.7645 20.4744" fill="black"/>
<mask id="mask0_174_2678" style="mask-type:alpha" maskUnits="userSpaceOnUse" x="11" y="11" width="12" height="12">
<path fill-rule="evenodd" clip-rule="evenodd" d="M21.7645 20.4744L17.8524 16.5403L21.7865 12.6281C22.1491 12.2676 22.1501 11.6824 21.7902 11.3204C21.4302 10.9585 20.8451 10.9562 20.4825 11.3168L16.5484 15.2289L12.6362 11.2948C12.2763 10.9329 11.6911 10.9306 11.3285 11.2911C10.9659 11.6517 10.9649 12.2369 11.3248 12.5988L15.237 16.533L11.3029 20.4451C10.9403 20.8057 10.9393 21.3909 11.2992 21.7528C11.6591 22.1147 12.2443 22.117 12.6069 21.7565L16.541 17.8443L20.4532 21.7784C20.8131 22.1404 21.3983 22.1426 21.7609 21.7821C22.1235 21.4215 22.1245 20.8363 21.7645 20.4744" fill="white"/>
</mask>
<g mask="url(#mask0_174_2678)">
<rect x="16.5889" y="0.843994" width="22.1926" height="22.1926" transform="rotate(45.1603 16.5889 0.843994)" fill="#00AC4E"/>
</g>
</svg>
